<svg id="App_Icon_Kit_A" data-name="App Icon Kit A" xmlns="http://www.w3.org/2000/svg" xmlns:xlink="http://www.w3.org/1999/xlink" viewBox="0 0 87 87"><defs><style>.cls-1{fill:url(#linear-gradient);}.cls-2{fill:#fff;}</style><linearGradient id="linear-gradient" x1="68.08" y1="955.92" x2="955.92" y2="68.08" gradientUnits="userSpaceOnUse"><stop offset="0" stop-color="#fbb03b"/><stop offset="1" stop-color="#ed1e79"/></linearGradient><symbol id="Icon" data-name="Icon" viewBox="0 0 1024 1024"><path id="App_Icon_Placeholder" data-name="App Icon Placeholder" class="cls-1" d="M357,0H667C769.8,0,821.18,0,876.52,17.49a217.47,217.47,0,0,1,130,130C1024,202.83,1024,254.22,1024,357V667c0,102.8,0,154.19-17.5,209.53a217.43,217.43,0,0,1-130,130C821.18,1024,769.8,1024,667,1024H357c-102.79,0-154.17,0-209.51-17.5a217.43,217.43,0,0,1-130-130C0,821.18,0,769.79,0,667V357C0,254.22,0,202.83,17.5,147.48a217.47,217.47,0,0,1,130-130C202.82,0,254.2,0,357,0h0"/><path class="cls-2" d="M820.84,497.64C783.61,460.4,740.72,435.3,699,423.5a300.8,300.8,0,0,1-6,46.05c-1.66,8-3.65,16.12-6,24.1,23.27,28.1,33.58,57.19,42.06,82.79,9.14,28.09,16.29,52.36,32.91,74a193.37,193.37,0,0,0,17.12,19.45c17.46,17.46,40.4,35.24,60.85,48.54,19.95,13.47,39.73,22.44,43.72,22.61a11.18,11.18,0,0,1,1.33.5C923.91,678.51,898.47,575.27,820.84,497.64Z"/><path class="cls-2" d="M854.59,774.93c-11.31-5.16-23.44-12.3-37.24-21.12-22.77-14.79-47.38-33.91-68-54.36a232.16,232.16,0,0,1-21.11-23.93c-22.44-29.76-30.75-59.85-39.57-86.78-5.48-16.62-11-32.08-19.28-46.88C648,590.4,615.54,637.28,574.64,678.18c-1.49,1.49-3,2.82-4.48,4.32a316.8,316.8,0,0,0,30.58,35.41C682.7,799.69,792.91,823.47,854.59,774.93Z"/><path class="cls-2" d="M147.91,698.46a9.23,9.23,0,0,1,2-.67c5.65-.33,34.41-13.46,63.33-32.91,29.76-19.45,62.84-45.22,88.27-70.66a300.05,300.05,0,0,0,24.94-28.09c23.94-31.42,34.41-66.66,47.71-107.55,13.3-40.4,29.76-86.61,70-130.67,1.66-1.82,3.65-4,5.81-6.31,32.42-32.25,68.49-44.22,100.08-56.36,13.63-5.32,26.76-10.64,39.73-17.12C562.34,232.66,529.92,225,495.18,225c-81.62,0-176.88,41.56-254.51,119.2C128,457.08,91.23,606.86,147.91,698.46Z"/><path class="cls-2" d="M656.77,522.91a357.58,357.58,0,0,0,15-45.55A280.21,280.21,0,0,0,680.21,419c1.66-49.21-11.31-93.92-40.07-127.84-24.43,15.13-48,24.61-68.49,32.42-33.41,12.47-57.85,21.78-77.63,41.73-1,1-2.16,2.32-3.66,4-30.75,33.74-43.72,68.32-56.69,107.72-12.8,39.06-24.76,83-57.51,126a347.09,347.09,0,0,1-30.76,34.74c-29.75,29.75-65.66,57.52-98.74,79-19.95,12.8-37.74,23.11-54,30.75,31.09,24.44,70.65,36.24,114.21,36.24,81,0,175.21-40.89,252.51-117.36a20.76,20.76,0,0,1,2-1.83C604.73,621.16,636.82,572,656.77,522.91Z"/></symbol></defs><g id="Settings_Icon_-_Preview_Sizes" data-name="Settings Icon - Preview Sizes"><g id="_87" data-name="87"><use width="1024" height="1024" transform="translate(0 -0.03) scale(0.08)" xlink:href="#Icon"/></g></g></svg>