<?xml version="1.0" encoding="UTF-8" standalone="no"?><!DOCTYPE svg PUBLIC "-//W3C//DTD SVG 1.1//EN" "http://www.w3.org/Graphics/SVG/1.1/DTD/svg11.dtd"><svg width="100%" height="100%" viewBox="0 0 251 78" version="1.1" xmlns="http://www.w3.org/2000/svg" xmlns:xlink="http://www.w3.org/1999/xlink" xml:space="preserve" xmlns:serif="http://www.serif.com/" style="fill-rule:evenodd;clip-rule:evenodd;stroke-linejoin:round;stroke-miterlimit:1.41421;"><g id="Logo"><g id="surface1"><path id="change1_1" d="M100.138,18.088c5.027,-1.489 8.72,-2.095 8.72,-2.095c0,0 -2.175,20.659 -12.283,31.219c-10.108,10.56 -19.154,11.773 -24.323,7.014c-5.169,-4.755 -4.504,-13.684 5.604,-24.244c4.722,-4.931 11.794,-8.306 17.996,-10.506l4.286,-1.388" style="fill:#77a657;fill-rule:nonzero;"/><path id="change2_1" d="M100.373,18.887c2.492,-0.737 4.65,-1.255 6.189,-1.59c0.765,-0.163 1.376,-0.284 1.794,-0.364c0.209,-0.037 0.368,-0.071 0.477,-0.087c0.054,-0.009 0.096,-0.017 0.121,-0.021l0.038,-0.004l-0.134,-0.828l-0.832,-0.088l-0.009,0.054c-0.062,0.581 -0.677,5.776 -2.488,12.066c-0.903,3.14 -2.104,6.561 -3.676,9.811c-1.572,3.249 -3.513,6.323 -5.88,8.795c-3.183,3.325 -6.236,5.688 -9.059,7.21c-2.827,1.526 -5.415,2.208 -7.67,2.208c-2.559,-0.004 -4.705,-0.857 -6.428,-2.438c-0.936,-0.862 -1.66,-1.865 -2.149,-2.999c-0.49,-1.137 -0.753,-2.404 -0.753,-3.814c0,-2.154 0.623,-4.638 2.003,-7.373c1.385,-2.731 3.526,-5.717 6.541,-8.866c2.284,-2.384 5.165,-4.416 8.247,-6.123c3.078,-1.706 6.357,-3.082 9.423,-4.174c0.435,-0.15 0.665,-0.631 0.51,-1.066c-0.155,-0.435 -0.632,-0.665 -1.067,-0.51c-3.132,1.112 -6.49,2.522 -9.677,4.287c-3.187,1.764 -6.202,3.885 -8.645,6.432c-3.103,3.241 -5.348,6.348 -6.825,9.267c-1.472,2.915 -2.183,5.65 -2.183,8.126c0,1.614 0.305,3.12 0.891,4.475c0.585,1.355 1.451,2.555 2.551,3.572c2.016,1.856 4.621,2.881 7.561,2.877c2.597,0 5.45,-0.782 8.461,-2.409c3.015,-1.627 6.198,-4.103 9.477,-7.524c2.609,-2.726 4.679,-6.072 6.331,-9.552c2.48,-5.219 4.015,-10.744 4.939,-14.972c0.925,-4.228 1.234,-7.164 1.238,-7.185c0.025,-0.259 -0.071,-0.518 -0.259,-0.694c-0.188,-0.18 -0.452,-0.259 -0.711,-0.217c-0.021,0.004 -3.743,0.614 -8.82,2.116c-0.443,0.129 -0.698,0.594 -0.565,1.037c0.13,0.443 0.594,0.698 1.038,0.565" style="fill:#322e2e;fill-rule:nonzero;"/><path id="change3_1" d="M82.749,55.551l0,-0.284c0,-0.845 -0.038,-1.698 -0.113,-2.564c3.45,-1.476 7.218,-4.169 11.154,-8.28c7.218,-7.537 10.388,-20.221 11.614,-26.862c0.414,-0.101 0.803,-0.184 1.158,-0.264c0.515,-0.108 0.958,-0.2 1.322,-0.272c-0.268,1.924 -0.954,6.136 -2.355,11c-0.903,3.14 -2.104,6.561 -3.676,9.811c-1.572,3.249 -3.513,6.323 -5.88,8.795c-3.183,3.325 -6.236,5.688 -9.059,7.21c-1.455,0.786 -2.852,1.351 -4.165,1.71" style="fill:#6d9b52;fill-rule:nonzero;"/><path id="change4_1" d="M82.724,56.421c0.012,-0.288 0.021,-0.581 0.025,-0.87c1.313,-0.359 2.71,-0.924 4.165,-1.71c2.823,-1.522 5.876,-3.885 9.059,-7.21c2.367,-2.472 4.308,-5.546 5.88,-8.795c1.572,-3.25 2.773,-6.671 3.676,-9.811c1.401,-4.864 2.087,-9.076 2.355,-11c-0.364,0.072 -0.807,0.164 -1.322,0.272c-0.355,0.08 -0.744,0.163 -1.158,0.264c0.054,-0.314 0.108,-0.611 0.159,-0.895c2.036,-0.464 3.295,-0.673 3.295,-0.673c0,0 -2.175,20.659 -12.283,31.219c-4.989,5.207 -9.719,8.143 -13.851,9.209" style="fill:#2f2b2b;fill-rule:nonzero;"/><path id="change1_2" d="M85.927,33.353c-1.999,14.482 -8.611,20.768 -15.591,19.944c-6.975,-0.819 -11.672,-8.444 -9.677,-22.922c1.999,-14.483 16.912,-29.513 16.912,-29.513c0,0 10.355,18.012 8.356,32.491" style="fill:#77a657;fill-rule:nonzero;"/><path id="change2_2" d="M85.927,33.353l-0.828,-0.113c-0.924,6.72 -2.864,11.593 -5.29,14.729c-1.213,1.568 -2.543,2.706 -3.931,3.455c-1.393,0.748 -2.848,1.108 -4.341,1.108c-0.364,0 -0.732,-0.021 -1.104,-0.063c-1.351,-0.159 -2.593,-0.594 -3.714,-1.305c-1.673,-1.062 -3.087,-2.756 -4.09,-5.156c-1.008,-2.401 -1.598,-5.5 -1.598,-9.31c0,-1.894 0.147,-3.969 0.456,-6.21c0.485,-3.501 1.756,-7.081 3.413,-10.468c2.475,-5.086 5.8,-9.74 8.502,-13.115c1.347,-1.69 2.543,-3.053 3.4,-3.998c0.427,-0.473 0.769,-0.837 1.004,-1.084c0.117,-0.125 0.209,-0.217 0.267,-0.28l0.071,-0.071l0.021,-0.021l-0.594,-0.589l-0.723,0.418l0.021,0.037c0.238,0.423 2.367,4.233 4.429,9.557c2.066,5.319 4.052,12.161 4.048,18.589c0,1.276 -0.079,2.543 -0.247,3.772l0.828,0.118l0.828,0.112c0.18,-1.317 0.264,-2.655 0.264,-4.002c-0.004,-6.988 -2.191,-14.211 -4.366,-19.714c-2.175,-5.504 -4.341,-9.281 -4.358,-9.306c-0.13,-0.221 -0.36,-0.376 -0.615,-0.41c-0.259,-0.033 -0.518,0.055 -0.702,0.239c-0.021,0.021 -3.777,3.806 -7.792,9.431c-2.011,2.81 -4.086,6.085 -5.792,9.581c-1.706,3.504 -3.045,7.235 -3.563,10.974c-0.318,2.313 -0.473,4.458 -0.473,6.44c0.004,5.303 1.088,9.439 3.003,12.392c0.958,1.472 2.129,2.643 3.463,3.488c1.334,0.849 2.827,1.367 4.412,1.551c0.435,0.051 0.87,0.076 1.301,0.076c1.769,0 3.508,-0.431 5.131,-1.305c2.438,-1.313 4.605,-3.593 6.336,-6.821c1.732,-3.233 3.036,-7.419 3.751,-12.614l-0.828,-0.112" style="fill:#322e2e;fill-rule:nonzero;"/><path id="change3_2" d="M81.315,45.686c-0.389,-1.355 -0.858,-2.714 -1.397,-4.082c0.819,-2.376 1.463,-5.123 1.898,-8.251c1.443,-10.477 -3.571,-22.793 -6.461,-28.811c0.548,-0.636 1.037,-1.184 1.447,-1.635c0.217,-0.239 0.414,-0.456 0.585,-0.636c0.799,1.51 2.376,4.634 3.911,8.603c2.066,5.319 4.052,12.161 4.048,18.589c0,1.276 -0.079,2.543 -0.247,3.772l0.828,0.118l-0.828,-0.113c-0.727,5.265 -2.07,9.397 -3.784,12.446" style="fill:#6d9b52;fill-rule:nonzero;"/><path id="change4_2" d="M81.62,46.811c-0.096,-0.372 -0.201,-0.749 -0.305,-1.125c1.714,-3.049 3.057,-7.181 3.784,-12.446l0.828,0.113l-0.828,-0.118c0.168,-1.229 0.247,-2.496 0.247,-3.772c0.004,-6.428 -1.982,-13.27 -4.048,-18.589c-1.535,-3.969 -3.112,-7.093 -3.911,-8.603c-0.171,0.18 -0.368,0.397 -0.585,0.636c-0.41,0.451 -0.899,0.999 -1.447,1.635c-0.138,-0.285 -0.268,-0.556 -0.397,-0.816c1.568,-1.806 2.613,-2.864 2.613,-2.864c0,0 10.355,18.012 8.356,32.491c-0.794,5.758 -2.321,10.225 -4.307,13.458" style="fill:#2f2b2b;fill-rule:nonzero;"/><path id="change5_1" d="M41.112,7.842c8.326,1.978 17.309,7.055 25.063,14.808c15.8,15.796 20.484,36.728 10.468,46.744c-0.268,0.268 -0.535,0.519 -0.82,0.757c-1.212,1.067 -2.567,1.941 -4.035,2.622c-10.979,5.094 -28.326,-0.28 -41.893,-13.847c-15.796,-15.796 -20.484,-36.727 -10.464,-46.743c0.272,-0.272 0.552,-0.532 0.837,-0.782c1.208,-1.054 2.551,-1.916 4.006,-2.593c3.087,-1.435 6.679,-2.041 10.552,-1.87l6.286,0.904" style="fill:#bb5043;fill-rule:nonzero;"/><path id="change2_3" d="M40.919,8.657c8.147,1.932 17.013,6.93 24.666,14.583c5.019,5.023 8.9,10.564 11.518,16.085c2.618,5.524 3.973,11.02 3.973,15.942c0,2.718 -0.414,5.261 -1.246,7.54c-0.832,2.284 -2.087,4.304 -3.781,5.998c-0.247,0.246 -0.506,0.485 -0.769,0.711l-0.009,0.008c-1.15,1.012 -2.434,1.84 -3.839,2.492c-2.614,1.213 -5.637,1.816 -8.92,1.816c-4.919,0 -10.418,-1.355 -15.939,-3.974c-5.52,-2.622 -11.065,-6.499 -16.084,-11.521c-5.023,-5.019 -8.9,-10.564 -11.522,-16.085c-2.618,-5.524 -3.973,-11.02 -3.973,-15.942c0,-2.719 0.414,-5.261 1.246,-7.541c0.837,-2.283 2.087,-4.303 3.781,-5.997c0.255,-0.255 0.523,-0.502 0.795,-0.736l0.004,-0.004c1.142,-1 2.421,-1.819 3.81,-2.463l-0.004,0c2.622,-1.217 5.645,-1.824 8.933,-1.824c0.405,0 0.815,0.013 1.229,0.03c0.46,0.021 0.849,-0.335 0.87,-0.799c0.021,-0.46 -0.334,-0.849 -0.799,-0.874c-0.439,-0.017 -0.87,-0.03 -1.3,-0.03c-3.492,0 -6.763,0.64 -9.636,1.979l-0.004,0c-1.518,0.711 -2.932,1.614 -4.203,2.722l0.008,-0.004c-0.305,0.259 -0.598,0.535 -0.886,0.824c-1.874,1.869 -3.258,4.111 -4.166,6.599c-0.912,2.493 -1.351,5.228 -1.351,8.118c0,5.228 1.431,10.949 4.136,16.657c2.706,5.709 6.696,11.401 11.848,16.553c5.153,5.148 10.845,9.142 16.549,11.848c5.709,2.706 11.434,4.136 16.658,4.136c3.483,0 6.754,-0.639 9.627,-1.974c1.539,-0.715 2.961,-1.626 4.236,-2.747l-0.552,-0.632l0.548,0.636c0.297,-0.255 0.582,-0.519 0.862,-0.803c1.878,-1.874 3.258,-4.111 4.169,-6.599c0.908,-2.493 1.347,-5.228 1.347,-8.118c0,-5.228 -1.43,-10.949 -4.136,-16.657c-2.706,-5.709 -6.696,-11.401 -11.848,-16.553c-7.85,-7.85 -16.955,-13.003 -25.461,-15.027c-0.452,-0.104 -0.899,0.172 -1.008,0.619c-0.104,0.452 0.172,0.903 0.623,1.008" style="fill:#322e2e;fill-rule:nonzero;"/><path id="change6_1" d="M75.823,70.151c-1.212,1.067 -2.567,1.941 -4.035,2.622c-0.126,-1.363 -0.272,-2.827 -0.49,-4.282c-0.226,-1.497 -0.506,-2.844 -0.857,-4.099c-0.364,-1.313 -0.824,-2.597 -1.363,-3.818c-0.536,-1.2 -1.176,-2.405 -1.903,-3.571c-0.707,-1.142 -1.506,-2.259 -2.367,-3.329c-0.866,-1.067 -1.786,-2.071 -2.74,-2.986c-0.978,-0.937 -2.011,-1.799 -3.069,-2.556c-1.058,-0.765 -2.209,-1.468 -3.413,-2.103c-0.452,-0.235 -0.928,-0.469 -1.426,-0.695c-1.614,-0.748 -3.354,-1.426 -5.173,-2.02c-0.565,-0.184 -1.125,-0.363 -1.69,-0.543c-1.564,-0.494 -3.183,-1.004 -4.768,-1.623c-1.564,-0.611 -2.956,-1.242 -4.257,-1.94c-1.389,-0.736 -2.727,-1.581 -3.977,-2.497c-1.242,-0.916 -2.451,-1.945 -3.584,-3.057c-0.092,-0.092 -0.189,-0.18 -0.276,-0.272c-1.017,-1.016 -1.983,-2.108 -2.882,-3.245c-0.987,-1.255 -1.89,-2.573 -2.681,-3.915c-0.811,-1.38 -1.522,-2.815 -2.107,-4.266c-0.586,-1.438 -1.079,-2.969 -1.464,-4.55c-0.352,-1.43 -0.636,-2.973 -0.87,-4.713c-0.054,-0.406 -0.109,-0.832 -0.163,-1.292c1.208,-1.054 2.551,-1.916 4.006,-2.593c0.017,0.104 0.03,0.209 0.042,0.317c0.034,0.256 0.067,0.506 0.092,0.757c0.088,0.841 0.172,1.573 0.268,2.242c0.209,1.589 0.464,2.986 0.782,4.262c0.339,1.38 0.761,2.714 1.271,3.964c0.506,1.255 1.125,2.497 1.832,3.697c0.694,1.175 1.489,2.338 2.359,3.442c0.861,1.096 1.802,2.141 2.785,3.103c0.991,0.975 2.045,1.874 3.128,2.669c1.083,0.794 2.246,1.526 3.455,2.17c1.15,0.615 2.392,1.184 3.797,1.727c1.455,0.569 2.936,1.037 4.5,1.531c0.577,0.184 1.154,0.368 1.731,0.556c1.974,0.644 3.877,1.385 5.642,2.2c0.556,0.259 1.1,0.523 1.606,0.79c1.389,0.724 2.71,1.539 3.936,2.418c1.217,0.878 2.408,1.869 3.525,2.944c1.087,1.041 2.133,2.179 3.107,3.383c0.975,1.209 1.874,2.472 2.677,3.756c0.832,1.338 1.568,2.718 2.179,4.098c0.631,1.414 1.158,2.899 1.581,4.408c0.397,1.435 0.711,2.94 0.962,4.613c0.117,0.774 0.213,1.543 0.292,2.296" style="fill:#a93d36;fill-rule:nonzero;"/><path id="change2_4" d="M75.823,70.151l-0.552,-0.627c-1.15,1.012 -2.434,1.84 -3.839,2.492l0.356,0.757l0.832,-0.075c-0.126,-1.372 -0.272,-2.848 -0.498,-4.333c-0.226,-1.526 -0.514,-2.906 -0.878,-4.198l0.004,0c-0.376,-1.351 -0.849,-2.673 -1.405,-3.936c-0.552,-1.238 -1.209,-2.471 -1.957,-3.672c-0.728,-1.171 -1.548,-2.317 -2.426,-3.408l0,-0.004c-0.891,-1.092 -1.832,-2.125 -2.815,-3.066c-1.003,-0.962 -2.066,-1.848 -3.157,-2.63c-1.092,-0.787 -2.275,-1.514 -3.513,-2.163l-0.004,0c-0.464,-0.238 -0.954,-0.481 -1.46,-0.715c-1.643,-0.761 -3.417,-1.451 -5.265,-2.053c-0.569,-0.188 -1.134,-0.368 -1.698,-0.548c-1.564,-0.489 -3.162,-1 -4.718,-1.602c-1.534,-0.602 -2.894,-1.221 -4.161,-1.898l-0.004,0c-1.355,-0.72 -2.66,-1.544 -3.873,-2.434c-1.208,-0.891 -2.388,-1.895 -3.5,-2.982l0.008,0.004c-0.104,-0.101 -0.196,-0.188 -0.276,-0.268c-0.991,-0.991 -1.936,-2.057 -2.814,-3.174c-0.966,-1.225 -1.845,-2.514 -2.618,-3.818l0.004,0c-0.795,-1.347 -1.489,-2.744 -2.058,-4.157c-0.569,-1.401 -1.049,-2.89 -1.426,-4.433c-0.343,-1.397 -0.623,-2.911 -0.853,-4.626l0,-0.004c-0.054,-0.402 -0.109,-0.824 -0.159,-1.276l-0.832,0.097l0.552,0.631c1.142,-1 2.421,-1.819 3.81,-2.463l-0.356,-0.761l-0.824,0.125c0.009,0.084 0.021,0.188 0.038,0.305l0.828,-0.113l-0.828,0.105c0.034,0.251 0.063,0.498 0.088,0.744l0.832,-0.092l-0.832,0.08c0.088,0.853 0.171,1.593 0.272,2.279l0,-0.008c0.213,1.614 0.472,3.04 0.794,4.353c0.347,1.414 0.787,2.786 1.314,4.078c0.522,1.292 1.158,2.572 1.886,3.81c0.715,1.204 1.526,2.396 2.421,3.534l0,-0.004c0.883,1.129 1.849,2.199 2.857,3.186c1.02,1 2.103,1.924 3.22,2.744c1.112,0.82 2.308,1.572 3.555,2.237c1.179,0.628 2.455,1.209 3.885,1.769l0,-0.004c1.493,0.586 2.99,1.058 4.554,1.552l0,-0.004c0.577,0.188 1.15,0.368 1.723,0.556c1.945,0.631 3.818,1.363 5.55,2.162l-0.004,0c0.552,0.255 1.079,0.514 1.572,0.774l0.004,0.004c1.351,0.702 2.639,1.497 3.831,2.354c1.188,0.854 2.346,1.82 3.438,2.865c1.058,1.016 2.078,2.129 3.036,3.308l-0.004,0c0.954,1.18 1.836,2.418 2.622,3.672c0.812,1.305 1.527,2.652 2.121,3.994c0.614,1.38 1.129,2.823 1.539,4.295c0.389,1.393 0.694,2.865 0.941,4.509c0.112,0.765 0.209,1.522 0.292,2.266l0.828,-0.092l-0.552,-0.627l0.552,0.627l0.833,-0.088c-0.08,-0.765 -0.18,-1.543 -0.302,-2.333c-0.255,-1.698 -0.572,-3.241 -0.978,-4.709c-0.435,-1.552 -0.979,-3.074 -1.623,-4.525c-0.627,-1.418 -1.38,-2.832 -2.233,-4.203c-0.82,-1.314 -1.74,-2.606 -2.739,-3.835l0,-0.005c-0.996,-1.229 -2.062,-2.396 -3.175,-3.458c-1.15,-1.1 -2.367,-2.116 -3.621,-3.02c-1.255,-0.903 -2.61,-1.74 -4.032,-2.48l0.004,0c-0.527,-0.276 -1.079,-0.543 -1.648,-0.807l0,-0.004c-1.798,-0.832 -3.73,-1.581 -5.733,-2.233c-0.582,-0.193 -1.159,-0.377 -1.736,-0.557l-0.004,-0.004c-1.564,-0.493 -3.028,-0.953 -4.45,-1.51c-1.376,-0.535 -2.589,-1.091 -3.705,-1.685c-1.171,-0.623 -2.3,-1.338 -3.35,-2.108c-1.05,-0.769 -2.074,-1.643 -3.045,-2.593c-0.953,-0.932 -1.869,-1.953 -2.71,-3.023c-0.849,-1.075 -1.618,-2.204 -2.296,-3.346l0.004,0c-0.69,-1.167 -1.288,-2.376 -1.777,-3.588c-0.493,-1.213 -0.907,-2.51 -1.238,-3.848c-0.309,-1.246 -0.556,-2.61 -0.765,-4.178l0,-0.004c-0.092,-0.652 -0.18,-1.376 -0.264,-2.208l0,-0.013c-0.029,-0.255 -0.058,-0.51 -0.092,-0.769l-0.004,-0.009c-0.012,-0.096 -0.025,-0.209 -0.042,-0.326c-0.041,-0.259 -0.2,-0.489 -0.435,-0.61c-0.23,-0.126 -0.506,-0.13 -0.748,-0.021c-1.518,0.711 -2.932,1.614 -4.203,2.722c-0.205,0.18 -0.31,0.452 -0.276,0.724c0.054,0.46 0.104,0.895 0.163,1.309l0,-0.004c0.234,1.769 0.523,3.341 0.882,4.801c0.398,1.622 0.904,3.191 1.502,4.667c0.602,1.493 1.334,2.961 2.166,4.379c0.811,1.371 1.731,2.718 2.743,4.002c0.916,1.167 1.903,2.283 2.945,3.325c0.104,0.1 0.196,0.188 0.28,0.272l0.004,0.004c1.163,1.137 2.401,2.191 3.676,3.132l0,0.004c1.284,0.937 2.652,1.799 4.078,2.56c1.334,0.711 2.756,1.359 4.345,1.978c1.623,0.631 3.258,1.15 4.818,1.644c0.569,0.179 1.129,0.355 1.685,0.539c1.79,0.581 3.501,1.255 5.082,1.982c0.485,0.226 0.949,0.452 1.388,0.682c1.171,0.615 2.292,1.301 3.316,2.037c1.021,0.736 2.025,1.572 2.974,2.48c0.928,0.891 1.828,1.869 2.672,2.911c0.837,1.041 1.619,2.132 2.305,3.241l0,0.004c0.711,1.133 1.33,2.3 1.848,3.467c0.527,1.183 0.97,2.426 1.322,3.701c0.343,1.221 0.615,2.53 0.836,3.998c0.214,1.431 0.36,2.878 0.485,4.237c0.021,0.272 0.18,0.514 0.414,0.648c0.235,0.138 0.523,0.151 0.77,0.033c1.539,-0.715 2.961,-1.626 4.236,-2.747c0.205,-0.18 0.31,-0.452 0.281,-0.72l-0.833,0.088" style="fill:#322e2e;fill-rule:nonzero;"/><path id="change7_1" d="M62.829,73.827c0.996,-0.28 1.958,-0.627 2.869,-1.049c1.473,-0.686 2.828,-1.556 4.04,-2.623c0.281,-0.238 0.552,-0.493 0.816,-0.757l0.025,-0.025c0.13,0.971 0.23,1.941 0.318,2.882c-2.405,1.016 -5.128,1.539 -8.068,1.572m13.622,-5.441c-0.03,-0.217 -0.059,-0.435 -0.097,-0.656c-0.255,-1.698 -0.572,-3.241 -0.978,-4.709c-0.126,-0.444 -0.255,-0.879 -0.397,-1.318c3.107,-10.969 -2.443,-26.602 -14.889,-39.053c-7.754,-7.749 -16.741,-12.826 -25.068,-14.804l-0.593,-0.084c0.121,0.004 0.238,0.008 0.359,0.013l0.038,0c0.414,0 0.769,-0.306 0.824,-0.716l4.634,0.665c-0.063,0.427 0.209,0.833 0.635,0.933c8.147,1.932 17.013,6.93 24.666,14.583c5.019,5.023 8.9,10.564 11.518,16.085c2.618,5.524 3.973,11.02 3.973,15.942c0,2.718 -0.414,5.261 -1.246,7.54c-0.765,2.1 -1.886,3.973 -3.379,5.579" style="fill:#ad4b3f;fill-rule:nonzero;"/><path id="change4_3" d="M62.528,74.66c-1.02,0 -2.066,-0.055 -3.124,-0.168c1.184,-0.138 2.33,-0.355 3.425,-0.665c2.94,-0.033 5.663,-0.556 8.068,-1.572c0.021,0.196 0.037,0.397 0.058,0.594c0.009,0.092 0.03,0.175 0.067,0.259c-2.555,1.046 -5.428,1.552 -8.494,1.552m14.061,-5.211c-0.042,-0.352 -0.088,-0.703 -0.138,-1.063c1.493,-1.606 2.614,-3.479 3.379,-5.579c0.832,-2.279 1.246,-4.822 1.246,-7.54c0,-4.922 -1.355,-10.418 -3.973,-15.942c-2.618,-5.521 -6.499,-11.062 -11.518,-16.085c-7.653,-7.653 -16.519,-12.651 -24.666,-14.583c-0.426,-0.1 -0.698,-0.506 -0.635,-0.933l0.828,0.118c8.326,1.978 17.309,7.055 25.063,14.808c15.8,15.796 20.484,36.728 10.468,46.744l-0.054,0.055m-41.763,-61.674l-0.038,0c-0.121,-0.005 -0.238,-0.009 -0.359,-0.013l-4.291,-0.619c1.125,-0.15 2.283,-0.23 3.475,-0.23c0.401,0 0.803,0.008 1.213,0.025l0.824,0.121c-0.055,0.41 -0.41,0.716 -0.824,0.716" style="fill:#2f2b2b;fill-rule:nonzero;"/><path id="change8_1" d="M72.503,71.473c-0.101,-1.008 -0.222,-2.058 -0.381,-3.108c-0.033,-0.217 -0.063,-0.434 -0.1,-0.648c0.786,-1.029 1.443,-2.141 1.982,-3.329c0.276,1.121 0.506,2.305 0.699,3.589c0.092,0.614 0.171,1.225 0.242,1.827c-0.761,0.632 -1.577,1.188 -2.442,1.669" style="fill:#9c3a33;fill-rule:nonzero;"/><path id="change4_4" d="M71.022,73.108c-0.037,-0.084 -0.058,-0.167 -0.067,-0.259c-0.021,-0.197 -0.037,-0.398 -0.058,-0.594c-0.088,-0.941 -0.188,-1.911 -0.318,-2.882c0.519,-0.522 0.999,-1.074 1.443,-1.656c0.037,0.214 0.067,0.431 0.1,0.648c0.159,1.05 0.28,2.1 0.381,3.108c0.865,-0.481 1.681,-1.037 2.442,-1.669c-0.071,-0.602 -0.15,-1.213 -0.242,-1.827c-0.193,-1.284 -0.423,-2.468 -0.699,-3.589c0.385,-0.857 0.711,-1.752 0.975,-2.685c0.142,0.439 0.271,0.874 0.397,1.318c0.406,1.468 0.723,3.011 0.978,4.709c0.038,0.221 0.067,0.439 0.097,0.656c0.05,0.36 0.096,0.711 0.138,1.063c-0.251,0.246 -0.502,0.481 -0.766,0.702c-1.212,1.067 -2.567,1.941 -4.035,2.622c-0.256,0.118 -0.511,0.23 -0.766,0.335" style="fill:#2f2b2b;fill-rule:nonzero;"/></g><text x="84.079px" y="29.278px" style="font-family:'Cinzel-Regular', 'Cinzel';font-size:25.069px;">C<tspan x="109.399px 132.287px 151.666px " y="29.278px 29.278px 29.278px ">afé</tspan></text><text x="-1.667px" y="68.016px" style="font-family:'Cinzel-Bold', 'Cinzel';font-weight:700;font-size:52.565px;stroke:#fff;stroke-width:0.24px;">p<tspan x="30.66px 61.621px 97.733px 127.379px 158.34px 178.419px 211.009px " y="68.016px 68.016px 68.016px 68.016px 68.016px 68.016px 68.016px ">erfeito</tspan></text></g></svg>