<?xml version="1.0" encoding="UTF-8" standalone="no"?><!DOCTYPE svg PUBLIC "-//W3C//DTD SVG 1.1//EN" "http://www.w3.org/Graphics/SVG/1.1/DTD/svg11.dtd"><svg width="100%" height="100%" viewBox="0 0 251 80" version="1.1" xmlns="http://www.w3.org/2000/svg" xmlns:xlink="http://www.w3.org/1999/xlink" xml:space="preserve" xmlns:serif="http://www.serif.com/" style="fill-rule:evenodd;clip-rule:evenodd;stroke-linejoin:round;stroke-miterlimit:1.41421;"><g id="Logo"><g id="surface1"><path id="change1_1" d="M105.463,9.621c2.674,-0.792 4.638,-1.114 4.638,-1.114c0,0 -1.157,10.989 -6.533,16.606c-5.377,5.617 -10.189,6.262 -12.938,3.731c-2.75,-2.53 -2.396,-7.279 2.981,-12.896c2.511,-2.623 6.273,-4.418 9.572,-5.588l2.28,-0.739" style="fill:#77a657;fill-rule:nonzero;"/><path id="change2_1" d="M105.587,10.046c1.326,-0.391 2.474,-0.667 3.293,-0.845c0.407,-0.087 0.732,-0.152 0.954,-0.194c0.111,-0.02 0.196,-0.038 0.254,-0.047c0.029,-0.004 0.051,-0.008 0.064,-0.011l0.02,-0.002l-0.071,-0.44l-0.443,-0.047l-0.004,0.029c-0.033,0.309 -0.36,3.072 -1.324,6.418c-0.48,1.67 -1.119,3.49 -1.955,5.219c-0.836,1.728 -1.869,3.363 -3.128,4.678c-1.693,1.768 -3.317,3.025 -4.818,3.835c-1.504,0.812 -2.881,1.174 -4.08,1.174c-1.361,-0.002 -2.503,-0.456 -3.419,-1.296c-0.498,-0.459 -0.883,-0.993 -1.144,-1.595c-0.26,-0.606 -0.4,-1.28 -0.4,-2.029c0,-1.146 0.332,-2.467 1.066,-3.922c0.736,-1.453 1.875,-3.041 3.479,-4.716c1.214,-1.268 2.747,-2.349 4.387,-3.257c1.637,-0.908 3.381,-1.639 5.012,-2.22c0.231,-0.08 0.353,-0.336 0.271,-0.567c-0.082,-0.232 -0.336,-0.354 -0.567,-0.272c-1.666,0.592 -3.453,1.342 -5.148,2.28c-1.695,0.939 -3.299,2.067 -4.598,3.422c-1.651,1.724 -2.845,3.377 -3.631,4.929c-0.783,1.551 -1.161,3.006 -1.161,4.323c0,0.858 0.163,1.659 0.474,2.38c0.312,0.721 0.772,1.359 1.357,1.9c1.072,0.987 2.458,1.532 4.022,1.53c1.381,0 2.899,-0.416 4.5,-1.281c1.604,-0.865 3.297,-2.182 5.041,-4.002c1.388,-1.45 2.489,-3.23 3.368,-5.081c1.319,-2.776 2.136,-5.715 2.627,-7.964c0.492,-2.249 0.657,-3.81 0.659,-3.822c0.013,-0.138 -0.038,-0.275 -0.138,-0.369c-0.1,-0.096 -0.24,-0.138 -0.378,-0.116c-0.011,0.003 -1.991,0.327 -4.692,1.126c-0.236,0.069 -0.371,0.316 -0.3,0.552c0.069,0.236 0.316,0.371 0.551,0.3" style="fill:#322e2e;fill-rule:nonzero;"/><path id="change3_1" d="M96.213,29.549l0,-0.152c0,-0.449 -0.02,-0.903 -0.06,-1.363c1.835,-0.785 3.84,-2.218 5.933,-4.405c3.84,-4.008 5.526,-10.756 6.178,-14.288c0.22,-0.053 0.427,-0.098 0.616,-0.14c0.273,-0.058 0.509,-0.107 0.703,-0.145c-0.143,1.023 -0.507,3.264 -1.253,5.851c-0.48,1.67 -1.119,3.49 -1.955,5.219c-0.836,1.728 -1.869,3.363 -3.128,4.678c-1.693,1.768 -3.317,3.025 -4.818,3.835c-0.774,0.418 -1.517,0.718 -2.216,0.91" style="fill:#6d9b52;fill-rule:nonzero;"/><path id="change4_1" d="M96.2,30.011c0.007,-0.153 0.011,-0.309 0.013,-0.462c0.699,-0.192 1.442,-0.492 2.216,-0.91c1.501,-0.81 3.125,-2.067 4.818,-3.835c1.259,-1.315 2.292,-2.95 3.128,-4.678c0.836,-1.729 1.475,-3.549 1.955,-5.219c0.746,-2.587 1.11,-4.828 1.253,-5.851c-0.194,0.038 -0.43,0.087 -0.703,0.145c-0.189,0.042 -0.396,0.087 -0.616,0.14c0.029,-0.167 0.057,-0.325 0.084,-0.476c1.084,-0.247 1.753,-0.358 1.753,-0.358c0,0 -1.157,10.989 -6.533,16.606c-2.654,2.77 -5.17,4.331 -7.368,4.898" style="fill:#2f2b2b;fill-rule:nonzero;"/><path id="change1_2" d="M97.904,17.741c-1.063,7.703 -4.58,11.047 -8.293,10.609c-3.711,-0.436 -6.209,-4.492 -5.148,-12.193c1.063,-7.704 8.996,-15.699 8.996,-15.699c0,0 5.508,9.581 4.445,17.283" style="fill:#77a657;fill-rule:nonzero;"/><path id="change2_2" d="M97.904,17.741l-0.441,-0.06c-0.491,3.575 -1.523,6.166 -2.814,7.835c-0.645,0.834 -1.352,1.439 -2.091,1.837c-0.74,0.398 -1.515,0.59 -2.309,0.59c-0.193,0 -0.389,-0.012 -0.587,-0.034c-0.719,-0.084 -1.379,-0.316 -1.975,-0.694c-0.89,-0.565 -1.642,-1.466 -2.176,-2.743c-0.536,-1.277 -0.85,-2.925 -0.85,-4.952c0,-1.007 0.078,-2.111 0.243,-3.303c0.258,-1.862 0.934,-3.766 1.815,-5.568c1.317,-2.705 3.085,-5.181 4.522,-6.976c0.717,-0.899 1.353,-1.624 1.809,-2.127c0.227,-0.251 0.409,-0.445 0.534,-0.576c0.062,-0.067 0.111,-0.116 0.142,-0.149l0.038,-0.038l0.011,-0.011l-0.316,-0.314l-0.385,0.223l0.012,0.02c0.126,0.224 1.259,2.251 2.355,5.083c1.099,2.829 2.156,6.469 2.154,9.888c0,0.678 -0.043,1.352 -0.132,2.007l0.441,0.062l0.44,0.06c0.096,-0.701 0.14,-1.413 0.14,-2.129c-0.002,-3.717 -1.165,-7.559 -2.322,-10.487c-1.157,-2.927 -2.309,-4.936 -2.318,-4.949c-0.069,-0.118 -0.191,-0.2 -0.327,-0.218c-0.138,-0.018 -0.276,0.029 -0.374,0.127c-0.011,0.011 -2.008,2.024 -4.144,5.016c-1.07,1.495 -2.173,3.237 -3.081,5.096c-0.908,1.865 -1.619,3.849 -1.895,5.838c-0.169,1.23 -0.252,2.371 -0.252,3.425c0.003,2.821 0.579,5.021 1.598,6.592c0.509,0.783 1.132,1.406 1.841,1.855c0.71,0.452 1.504,0.727 2.347,0.825c0.232,0.027 0.463,0.04 0.692,0.04c0.941,0 1.867,-0.229 2.73,-0.694c1.297,-0.698 2.449,-1.911 3.37,-3.628c0.921,-1.719 1.615,-3.946 1.995,-6.709l-0.44,-0.06" style="fill:#322e2e;fill-rule:nonzero;"/><path id="change3_2" d="M95.45,24.301c-0.207,-0.721 -0.456,-1.444 -0.743,-2.171c0.436,-1.264 0.779,-2.725 1.01,-4.389c0.768,-5.573 -1.9,-12.124 -3.437,-15.325c0.292,-0.338 0.552,-0.63 0.77,-0.87c0.116,-0.127 0.22,-0.242 0.311,-0.338c0.425,0.803 1.264,2.465 2.08,4.576c1.099,2.829 2.156,6.469 2.154,9.888c0,0.678 -0.043,1.352 -0.132,2.007l0.441,0.062l-0.441,-0.06c-0.387,2.8 -1.101,4.998 -2.013,6.62" style="fill:#6d9b52;fill-rule:nonzero;"/><path id="change4_2" d="M95.613,24.899c-0.052,-0.198 -0.107,-0.398 -0.163,-0.598c0.912,-1.622 1.626,-3.82 2.013,-6.62l0.441,0.06l-0.441,-0.062c0.089,-0.655 0.132,-1.329 0.132,-2.007c0.002,-3.419 -1.055,-7.059 -2.154,-9.888c-0.816,-2.111 -1.655,-3.773 -2.08,-4.576c-0.091,0.096 -0.195,0.211 -0.311,0.338c-0.218,0.24 -0.478,0.532 -0.77,0.87c-0.073,-0.151 -0.142,-0.296 -0.211,-0.434c0.834,-0.961 1.39,-1.524 1.39,-1.524c0,0 5.508,9.581 4.445,17.283c-0.423,3.063 -1.235,5.439 -2.291,7.158" style="fill:#2f2b2b;fill-rule:nonzero;"/><path id="change5_1" d="M74.066,4.171c4.429,1.052 9.207,3.753 13.331,7.877c8.405,8.402 10.896,19.536 5.568,24.864c-0.142,0.142 -0.284,0.276 -0.436,0.403c-0.645,0.567 -1.366,1.032 -2.146,1.394c-5.84,2.71 -15.067,-0.149 -22.284,-7.365c-8.402,-8.402 -10.896,-19.536 -5.565,-24.864c0.144,-0.144 0.293,-0.282 0.444,-0.416c0.643,-0.56 1.357,-1.019 2.132,-1.379c1.641,-0.763 3.552,-1.086 5.612,-0.994l3.344,0.48" style="fill:#bb5043;fill-rule:nonzero;"/><path id="change2_3" d="M73.963,4.605c4.334,1.028 9.05,3.686 13.121,7.757c2.669,2.672 4.734,5.619 6.126,8.555c1.393,2.939 2.113,5.862 2.113,8.48c0,1.446 -0.22,2.799 -0.663,4.011c-0.442,1.215 -1.11,2.289 -2.011,3.19c-0.131,0.132 -0.269,0.258 -0.409,0.378l-0.004,0.005c-0.612,0.538 -1.295,0.979 -2.042,1.326c-1.391,0.645 -2.999,0.965 -4.745,0.965c-2.616,0 -5.542,-0.721 -8.478,-2.113c-2.937,-1.395 -5.886,-3.457 -8.556,-6.129c-2.671,-2.669 -4.734,-5.619 -6.128,-8.555c-1.393,-2.939 -2.114,-5.862 -2.114,-8.48c0,-1.446 0.221,-2.799 0.663,-4.011c0.445,-1.215 1.11,-2.289 2.011,-3.19c0.136,-0.136 0.278,-0.267 0.423,-0.392l0.002,-0.002c0.607,-0.532 1.288,-0.968 2.027,-1.31l-0.003,0c1.395,-0.648 3.004,-0.97 4.752,-0.97c0.216,0 0.434,0.007 0.654,0.015c0.245,0.012 0.452,-0.178 0.463,-0.424c0.011,-0.245 -0.178,-0.452 -0.425,-0.465c-0.234,-0.009 -0.463,-0.016 -0.692,-0.016c-1.857,0 -3.597,0.34 -5.125,1.052l-0.003,0c-0.807,0.378 -1.559,0.859 -2.235,1.448l0.004,-0.002c-0.162,0.138 -0.318,0.285 -0.471,0.438c-0.997,0.995 -1.733,2.187 -2.216,3.511c-0.485,1.326 -0.719,2.78 -0.719,4.318c0,2.78 0.761,5.824 2.201,8.86c1.439,3.037 3.561,6.064 6.302,8.805c2.74,2.738 5.768,4.863 8.802,6.302c3.037,1.439 6.082,2.2 8.861,2.2c1.853,0 3.592,-0.34 5.121,-1.05c0.818,-0.38 1.575,-0.865 2.253,-1.461l-0.294,-0.336l0.292,0.338c0.158,-0.136 0.309,-0.276 0.458,-0.427c0.999,-0.997 1.733,-2.187 2.218,-3.511c0.483,-1.326 0.716,-2.78 0.716,-4.318c0,-2.78 -0.761,-5.823 -2.2,-8.86c-1.439,-3.036 -3.561,-6.064 -6.302,-8.805c-4.175,-4.175 -9.018,-6.916 -13.543,-7.993c-0.24,-0.055 -0.478,0.092 -0.536,0.33c-0.056,0.24 0.091,0.48 0.331,0.536" style="fill:#322e2e;fill-rule:nonzero;"/><path id="change6_1" d="M92.529,37.315c-0.645,0.567 -1.366,1.032 -2.146,1.394c-0.067,-0.725 -0.145,-1.503 -0.261,-2.278c-0.12,-0.796 -0.269,-1.512 -0.456,-2.18c-0.193,-0.698 -0.438,-1.381 -0.725,-2.031c-0.285,-0.638 -0.625,-1.279 -1.012,-1.899c-0.376,-0.608 -0.801,-1.202 -1.259,-1.771c-0.461,-0.567 -0.95,-1.101 -1.457,-1.588c-0.521,-0.499 -1.07,-0.957 -1.633,-1.36c-0.563,-0.407 -1.175,-0.78 -1.815,-1.119c-0.24,-0.124 -0.494,-0.249 -0.759,-0.369c-0.858,-0.398 -1.784,-0.758 -2.752,-1.074c-0.3,-0.098 -0.598,-0.194 -0.898,-0.29c-0.832,-0.262 -1.693,-0.533 -2.536,-0.863c-0.832,-0.324 -1.573,-0.66 -2.265,-1.032c-0.738,-0.391 -1.45,-0.841 -2.115,-1.328c-0.661,-0.487 -1.304,-1.034 -1.907,-1.626c-0.049,-0.049 -0.1,-0.096 -0.147,-0.145c-0.54,-0.54 -1.054,-1.121 -1.532,-1.726c-0.525,-0.667 -1.006,-1.368 -1.426,-2.082c-0.432,-0.734 -0.81,-1.497 -1.122,-2.269c-0.311,-0.765 -0.573,-1.58 -0.778,-2.42c-0.187,-0.761 -0.338,-1.582 -0.463,-2.507c-0.029,-0.216 -0.058,-0.443 -0.087,-0.688c0.643,-0.56 1.357,-1.019 2.132,-1.379c0.008,0.056 0.015,0.111 0.022,0.169c0.018,0.136 0.035,0.269 0.049,0.403c0.046,0.447 0.091,0.836 0.142,1.192c0.111,0.845 0.247,1.588 0.416,2.267c0.18,0.734 0.405,1.444 0.676,2.109c0.27,0.667 0.599,1.328 0.975,1.966c0.369,0.625 0.792,1.244 1.254,1.831c0.459,0.583 0.959,1.139 1.482,1.651c0.527,0.518 1.088,0.996 1.664,1.419c0.576,0.423 1.194,0.812 1.837,1.154c0.612,0.327 1.273,0.63 2.02,0.919c0.774,0.303 1.562,0.552 2.394,0.814c0.307,0.098 0.614,0.196 0.921,0.296c1.05,0.343 2.062,0.737 3.001,1.17c0.296,0.138 0.585,0.278 0.854,0.421c0.739,0.385 1.441,0.818 2.093,1.286c0.648,0.467 1.282,0.994 1.876,1.566c0.578,0.554 1.134,1.159 1.652,1.799c0.519,0.643 0.997,1.315 1.424,1.998c0.443,0.712 0.834,1.446 1.159,2.18c0.336,0.752 0.616,1.542 0.841,2.345c0.211,0.763 0.378,1.564 0.512,2.453c0.062,0.412 0.113,0.821 0.155,1.222" style="fill:#a93d36;fill-rule:nonzero;"/><path id="change2_4" d="M92.529,37.315l-0.293,-0.334c-0.612,0.538 -1.295,0.979 -2.042,1.326l0.189,0.402l0.442,-0.04c-0.066,-0.729 -0.144,-1.515 -0.264,-2.304c-0.12,-0.812 -0.274,-1.546 -0.468,-2.234l0.003,0c-0.2,-0.718 -0.452,-1.421 -0.748,-2.093c-0.293,-0.658 -0.643,-1.315 -1.041,-1.953c-0.387,-0.623 -0.823,-1.233 -1.29,-1.813l0,-0.002c-0.474,-0.581 -0.974,-1.13 -1.497,-1.631c-0.534,-0.512 -1.099,-0.983 -1.68,-1.399c-0.58,-0.418 -1.21,-0.806 -1.868,-1.15l-0.003,0c-0.246,-0.127 -0.507,-0.256 -0.776,-0.381c-0.874,-0.405 -1.817,-0.772 -2.801,-1.092c-0.302,-0.1 -0.603,-0.196 -0.903,-0.291c-0.832,-0.261 -1.682,-0.532 -2.509,-0.852c-0.817,-0.321 -1.54,-0.65 -2.214,-1.01l-0.002,0c-0.721,-0.383 -1.415,-0.821 -2.06,-1.295c-0.643,-0.474 -1.27,-1.008 -1.862,-1.586l0.005,0.002c-0.056,-0.053 -0.105,-0.1 -0.147,-0.142c-0.527,-0.528 -1.03,-1.095 -1.497,-1.689c-0.514,-0.652 -0.981,-1.337 -1.393,-2.031l0.003,0c-0.423,-0.716 -0.792,-1.459 -1.095,-2.211c-0.303,-0.745 -0.558,-1.537 -0.759,-2.358c-0.182,-0.743 -0.331,-1.548 -0.453,-2.46l0,-0.003c-0.029,-0.213 -0.058,-0.438 -0.085,-0.678l-0.443,0.051l0.294,0.336c0.607,-0.532 1.288,-0.968 2.027,-1.31l-0.189,-0.405l-0.439,0.067c0.005,0.044 0.011,0.1 0.02,0.162l0.441,-0.06l-0.441,0.056c0.018,0.133 0.034,0.264 0.047,0.396l0.443,-0.049l-0.443,0.042c0.047,0.454 0.091,0.847 0.145,1.212l0,-0.004c0.113,0.858 0.251,1.617 0.422,2.316c0.185,0.751 0.419,1.481 0.699,2.169c0.278,0.687 0.616,1.368 1.003,2.026c0.38,0.641 0.812,1.275 1.288,1.88l0,-0.002c0.469,0.6 0.983,1.17 1.519,1.695c0.543,0.531 1.119,1.023 1.713,1.459c0.592,0.436 1.228,0.836 1.891,1.19c0.628,0.334 1.306,0.643 2.067,0.941l0,-0.002c0.794,0.311 1.59,0.563 2.422,0.825l0,-0.002c0.307,0.1 0.612,0.196 0.917,0.296c1.034,0.336 2.031,0.725 2.952,1.15l-0.002,0c0.293,0.136 0.574,0.274 0.836,0.411l0.002,0.003c0.719,0.373 1.404,0.796 2.038,1.252c0.632,0.454 1.248,0.968 1.829,1.524c0.562,0.541 1.105,1.132 1.615,1.76l-0.003,0c0.508,0.627 0.977,1.285 1.395,1.953c0.432,0.694 0.812,1.41 1.128,2.124c0.327,0.734 0.601,1.502 0.819,2.285c0.207,0.741 0.369,1.524 0.5,2.398c0.06,0.407 0.111,0.81 0.156,1.206l0.44,-0.049l-0.293,-0.334l0.293,0.334l0.443,-0.047c-0.042,-0.407 -0.096,-0.821 -0.16,-1.241c-0.136,-0.904 -0.305,-1.724 -0.521,-2.505c-0.231,-0.826 -0.52,-1.635 -0.863,-2.407c-0.333,-0.754 -0.734,-1.506 -1.188,-2.236c-0.436,-0.698 -0.925,-1.386 -1.457,-2.04l0,-0.002c-0.529,-0.654 -1.096,-1.275 -1.688,-1.84c-0.612,-0.585 -1.259,-1.125 -1.927,-1.606c-0.667,-0.48 -1.388,-0.925 -2.144,-1.319l0.002,0c-0.28,-0.147 -0.574,-0.289 -0.876,-0.429l0,-0.003c-0.957,-0.442 -1.985,-0.84 -3.05,-1.187c-0.309,-0.103 -0.616,-0.201 -0.923,-0.296l-0.003,-0.003c-0.832,-0.262 -1.61,-0.507 -2.367,-0.803c-0.731,-0.284 -1.377,-0.58 -1.971,-0.896c-0.622,-0.332 -1.223,-0.712 -1.781,-1.121c-0.559,-0.41 -1.104,-0.875 -1.62,-1.38c-0.507,-0.496 -0.994,-1.038 -1.441,-1.608c-0.452,-0.572 -0.861,-1.172 -1.222,-1.78l0.003,0c-0.367,-0.62 -0.686,-1.263 -0.946,-1.908c-0.262,-0.645 -0.483,-1.335 -0.658,-2.047c-0.165,-0.663 -0.296,-1.388 -0.407,-2.222l0,-0.002c-0.049,-0.347 -0.096,-0.732 -0.141,-1.175l0,-0.007c-0.015,-0.135 -0.031,-0.271 -0.049,-0.409l-0.002,-0.004c-0.006,-0.051 -0.013,-0.112 -0.022,-0.174c-0.022,-0.138 -0.107,-0.26 -0.231,-0.325c-0.123,-0.066 -0.27,-0.069 -0.399,-0.011c-0.807,0.378 -1.559,0.859 -2.235,1.448c-0.109,0.096 -0.165,0.241 -0.147,0.385c0.029,0.245 0.056,0.476 0.087,0.697l0,-0.003c0.124,0.941 0.278,1.778 0.469,2.554c0.211,0.863 0.481,1.697 0.799,2.483c0.32,0.794 0.709,1.575 1.152,2.329c0.432,0.729 0.921,1.446 1.459,2.129c0.488,0.62 1.013,1.214 1.566,1.768c0.056,0.054 0.105,0.1 0.149,0.145l0.003,0.002c0.618,0.605 1.277,1.166 1.955,1.666l0,0.002c0.683,0.499 1.41,0.957 2.169,1.362c0.71,0.378 1.466,0.723 2.311,1.052c0.863,0.336 1.733,0.612 2.563,0.874c0.303,0.096 0.601,0.189 0.897,0.287c0.952,0.31 1.861,0.668 2.702,1.055c0.258,0.12 0.505,0.24 0.739,0.362c0.623,0.327 1.219,0.692 1.764,1.084c0.543,0.391 1.077,0.836 1.582,1.319c0.493,0.474 0.972,0.994 1.421,1.548c0.445,0.554 0.861,1.135 1.226,1.724l0,0.002c0.378,0.603 0.707,1.224 0.983,1.845c0.28,0.629 0.516,1.29 0.703,1.968c0.182,0.65 0.327,1.346 0.445,2.127c0.113,0.761 0.191,1.53 0.258,2.253c0.011,0.145 0.096,0.274 0.22,0.345c0.125,0.074 0.278,0.08 0.41,0.018c0.818,-0.38 1.575,-0.865 2.253,-1.461c0.109,-0.096 0.165,-0.241 0.149,-0.383l-0.443,0.047" style="fill:#322e2e;fill-rule:nonzero;"/><path id="change7_1" d="M85.618,39.27c0.529,-0.149 1.041,-0.334 1.526,-0.558c0.783,-0.365 1.504,-0.828 2.149,-1.395c0.149,-0.127 0.293,-0.263 0.433,-0.403l0.014,-0.013c0.069,0.516 0.122,1.032 0.169,1.533c-1.279,0.54 -2.727,0.818 -4.291,0.836m7.245,-2.894c-0.016,-0.116 -0.031,-0.231 -0.051,-0.349c-0.136,-0.904 -0.305,-1.724 -0.521,-2.505c-0.066,-0.236 -0.135,-0.467 -0.211,-0.701c1.653,-5.835 -1.299,-14.15 -7.919,-20.773c-4.125,-4.122 -8.905,-6.823 -13.334,-7.875l-0.316,-0.044c0.064,0.002 0.127,0.004 0.191,0.006l0.02,0c0.22,0 0.409,-0.162 0.438,-0.38l2.465,0.354c-0.033,0.227 0.111,0.442 0.338,0.496c4.334,1.028 9.05,3.686 13.121,7.757c2.669,2.672 4.734,5.619 6.126,8.555c1.393,2.939 2.113,5.862 2.113,8.48c0,1.446 -0.22,2.799 -0.663,4.011c-0.407,1.117 -1.003,2.114 -1.797,2.968" style="fill:#ad4b3f;fill-rule:nonzero;"/><path id="change4_3" d="M85.458,39.713c-0.543,0 -1.099,-0.029 -1.662,-0.089c0.629,-0.074 1.239,-0.189 1.822,-0.354c1.564,-0.018 3.012,-0.296 4.291,-0.836c0.011,0.104 0.02,0.211 0.031,0.315c0.004,0.049 0.016,0.094 0.036,0.138c-1.36,0.557 -2.888,0.826 -4.518,0.826m7.478,-2.772c-0.022,-0.187 -0.046,-0.374 -0.073,-0.565c0.794,-0.854 1.39,-1.851 1.797,-2.968c0.443,-1.212 0.663,-2.565 0.663,-4.011c0,-2.618 -0.72,-5.541 -2.113,-8.48c-1.392,-2.936 -3.457,-5.883 -6.126,-8.555c-4.071,-4.071 -8.787,-6.729 -13.121,-7.757c-0.227,-0.054 -0.371,-0.269 -0.338,-0.496l0.441,0.062c4.429,1.052 9.207,3.753 13.331,7.877c8.405,8.402 10.896,19.536 5.568,24.864l-0.029,0.029m-22.214,-32.806l-0.02,0c-0.064,-0.002 -0.127,-0.004 -0.191,-0.006l-2.283,-0.329c0.599,-0.081 1.215,-0.123 1.849,-0.123c0.214,0 0.427,0.005 0.645,0.014l0.438,0.064c-0.029,0.218 -0.218,0.38 -0.438,0.38" style="fill:#2f2b2b;fill-rule:nonzero;"/><path id="change8_1" d="M90.763,38.018c-0.053,-0.537 -0.118,-1.095 -0.202,-1.653c-0.018,-0.116 -0.034,-0.232 -0.054,-0.345c0.418,-0.547 0.768,-1.139 1.055,-1.771c0.147,0.596 0.269,1.226 0.371,1.909c0.049,0.327 0.091,0.652 0.129,0.972c-0.405,0.336 -0.838,0.632 -1.299,0.888" style="fill:#9c3a33;fill-rule:nonzero;"/><path id="change4_4" d="M89.976,38.887c-0.02,-0.044 -0.032,-0.089 -0.036,-0.138c-0.011,-0.104 -0.02,-0.211 -0.031,-0.315c-0.047,-0.501 -0.1,-1.017 -0.169,-1.533c0.276,-0.278 0.531,-0.572 0.767,-0.881c0.02,0.113 0.036,0.229 0.054,0.345c0.084,0.558 0.149,1.116 0.202,1.653c0.461,-0.256 0.894,-0.552 1.299,-0.888c-0.038,-0.32 -0.08,-0.645 -0.129,-0.972c-0.102,-0.683 -0.224,-1.313 -0.371,-1.909c0.204,-0.456 0.378,-0.932 0.518,-1.428c0.076,0.234 0.145,0.465 0.211,0.701c0.216,0.781 0.385,1.601 0.521,2.505c0.02,0.118 0.035,0.233 0.051,0.349c0.027,0.191 0.051,0.378 0.073,0.565c-0.133,0.131 -0.266,0.256 -0.407,0.374c-0.645,0.567 -1.366,1.032 -2.146,1.394c-0.136,0.063 -0.272,0.123 -0.407,0.178" style="fill:#2f2b2b;fill-rule:nonzero;"/></g><text x="112.452px" y="39.798px" style="font-family:'Cinzel-Regular', 'Cinzel';font-size:25.069px;">C<tspan x="137.772px 160.66px 180.039px " y="39.798px 39.798px 39.798px ">afé</tspan></text><text x="-1.667px" y="78.536px" style="font-family:'Cinzel-Bold', 'Cinzel';font-weight:700;font-size:52.565px;stroke:#fff;stroke-width:0.24px;">p<tspan x="30.66px 61.621px 97.733px 127.379px 158.34px 178.419px 211.009px " y="78.536px 78.536px 78.536px 78.536px 78.536px 78.536px 78.536px ">erfeito</tspan></text></g></svg>