<?xml version="1.0" encoding="UTF-8" standalone="no"?>
<!DOCTYPE svg PUBLIC "-//W3C//DTD SVG 1.1//EN" "http://www.w3.org/Graphics/SVG/1.1/DTD/svg11.dtd">
<svg class="svg-logo-3" width="100%" height="100%" viewBox="0 0 1305 262" version="1.1" xmlns="http://www.w3.org/2000/svg" xmlns:xlink="http://www.w3.org/1999/xlink" xml:space="preserve" xmlns:serif="http://www.serif.com/" style="fill-rule:evenodd;clip-rule:evenodd;stroke-linejoin:round;stroke-miterlimit:2;">
	<g id="Logo">
		<g id="surface1">
			<path id="change1_1" d="M304.808,60.776c16.891,-5.002 29.299,-7.04 29.299,-7.04c0,0 -7.307,69.418 -41.271,104.9c-33.965,35.482 -64.36,39.557 -81.729,23.566c-17.368,-15.978 -15.134,-45.979 18.83,-81.461c15.866,-16.568 39.628,-27.908 60.467,-35.3l14.404,-4.665" style="fill:#77a657;fill-rule:nonzero;"/>
			<path id="change2_1" d="M305.595,63.46c8.375,-2.473 15.626,-4.216 20.797,-5.34c2.572,-0.548 4.624,-0.955 6.029,-1.222c0.702,-0.127 1.236,-0.239 1.602,-0.295c0.182,-0.029 0.323,-0.057 0.407,-0.071l0.127,-0.014l-0.45,-2.782l-2.796,-0.295l-0.028,0.183c-0.211,1.953 -2.277,19.406 -8.362,40.54c-3.035,10.554 -7.068,22.048 -12.352,32.967c-5.283,10.919 -11.803,21.247 -19.757,29.552c-10.694,11.172 -20.952,19.111 -30.437,24.226c-9.5,5.129 -18.198,7.42 -25.772,7.42c-8.6,-0.014 -15.809,-2.881 -21.599,-8.193c-3.147,-2.895 -5.578,-6.267 -7.222,-10.075c-1.644,-3.822 -2.53,-8.08 -2.53,-12.816c0,-7.237 2.094,-15.584 6.731,-24.774c4.652,-9.176 11.846,-19.21 21.978,-29.791c7.673,-8.01 17.355,-14.839 27.711,-20.573c10.343,-5.733 21.36,-10.356 31.66,-14.024c1.461,-0.506 2.234,-2.122 1.714,-3.583c-0.52,-1.461 -2.122,-2.234 -3.583,-1.714c-10.525,3.738 -21.809,8.473 -32.517,14.403c-10.708,5.93 -20.84,13.055 -29.046,21.613c-10.427,10.89 -17.973,21.331 -22.933,31.139c-4.947,9.795 -7.336,18.985 -7.336,27.304c0,5.424 1.026,10.483 2.993,15.036c1.968,4.553 4.877,8.586 8.572,12.001c6.774,6.239 15.528,9.682 25.407,9.668c8.726,0 18.31,-2.628 28.428,-8.095c10.131,-5.466 20.825,-13.785 31.842,-25.28c8.769,-9.162 15.725,-20.403 21.275,-32.095c8.333,-17.537 13.49,-36.1 16.596,-50.307c3.106,-14.207 4.145,-24.072 4.159,-24.142c0.085,-0.871 -0.238,-1.742 -0.871,-2.333c-0.632,-0.604 -1.517,-0.871 -2.389,-0.73c-0.07,0.014 -12.576,2.065 -29.636,7.11c-1.489,0.436 -2.347,1.996 -1.897,3.485c0.436,1.49 1.995,2.347 3.485,1.897" style="fill:#322e2e;fill-rule:nonzero;"/>
			<path id="change3_1" d="M246.379,186.656l0,-0.955c0,-2.839 -0.127,-5.705 -0.38,-8.614c11.593,-4.961 24.254,-14.01 37.478,-27.824c24.254,-25.322 34.906,-67.942 39.023,-90.257c1.391,-0.338 2.698,-0.619 3.892,-0.886c1.729,-0.365 3.218,-0.674 4.441,-0.913c-0.899,6.464 -3.204,20.615 -7.912,36.957c-3.035,10.554 -7.068,22.048 -12.352,32.967c-5.283,10.919 -11.803,21.247 -19.757,29.552c-10.694,11.172 -20.952,19.111 -30.437,24.226c-4.89,2.642 -9.584,4.539 -13.996,5.747" style="fill:#6d9b52;fill-rule:nonzero;"/>
			<path id="change4_1" d="M246.294,189.579c0.043,-0.969 0.071,-1.953 0.085,-2.923c4.412,-1.208 9.106,-3.105 13.996,-5.747c9.485,-5.115 19.743,-13.054 30.437,-24.226c7.954,-8.305 14.474,-18.633 19.757,-29.552c5.284,-10.919 9.317,-22.413 12.352,-32.967c4.708,-16.342 7.013,-30.493 7.912,-36.957c-1.223,0.239 -2.712,0.548 -4.441,0.913c-1.194,0.267 -2.501,0.548 -3.892,0.886c0.183,-1.054 0.365,-2.052 0.534,-3.008c6.843,-1.559 11.073,-2.262 11.073,-2.262c0,0 -7.307,69.418 -41.271,104.9c-16.765,17.495 -32.658,27.36 -46.542,30.943" style="fill:#2f2b2b;fill-rule:nonzero;"/>
			<path id="change1_2" d="M257.058,112.067c-6.717,48.663 -28.933,69.784 -52.387,67.015c-23.439,-2.754 -39.219,-28.371 -32.516,-77.02c6.717,-48.663 56.827,-99.167 56.827,-99.167c0,0 34.793,60.523 28.076,109.172" style="fill:#77a657;fill-rule:nonzero;"/>
			<path id="change2_2" d="M257.058,112.067l-2.782,-0.379c-3.106,22.582 -9.626,38.952 -17.776,49.492c-4.075,5.269 -8.544,9.092 -13.209,11.607c-4.68,2.515 -9.57,3.724 -14.587,3.724c-1.222,0 -2.459,-0.071 -3.709,-0.211c-4.539,-0.534 -8.713,-1.995 -12.479,-4.384c-5.621,-3.57 -10.37,-9.261 -13.743,-17.327c-3.386,-8.066 -5.368,-18.479 -5.368,-31.28c0,-6.366 0.492,-13.336 1.532,-20.868c1.63,-11.762 5.902,-23.79 11.467,-35.173c8.318,-17.087 19.49,-32.727 28.568,-44.068c4.525,-5.677 8.544,-10.258 11.424,-13.434c1.434,-1.588 2.586,-2.81 3.373,-3.639c0.393,-0.422 0.702,-0.731 0.899,-0.942l0.309,-0.309l-1.995,-1.981l-2.431,1.405l0.07,0.126c0.801,1.42 7.954,14.221 14.882,32.11c6.941,17.874 13.616,40.864 13.602,62.462c0,4.286 -0.267,8.544 -0.829,12.675l2.782,0.394l2.783,0.379c0.604,-4.426 0.885,-8.923 0.885,-13.448c-0.014,-23.481 -7.363,-47.749 -14.671,-66.242c-7.307,-18.493 -14.586,-31.182 -14.642,-31.266c-0.436,-0.745 -1.209,-1.265 -2.066,-1.378c-0.871,-0.112 -1.742,0.183 -2.36,0.801c-0.071,0.071 -12.69,12.788 -26.18,31.688c-6.759,9.443 -13.729,20.446 -19.462,32.194c-5.734,11.776 -10.23,24.311 -11.973,36.873c-1.068,7.771 -1.588,14.98 -1.588,21.641c0.014,17.818 3.654,31.716 10.09,41.637c3.218,4.946 7.152,8.881 11.635,11.719c4.483,2.853 9.499,4.595 14.825,5.214c1.462,0.168 2.923,0.253 4.37,0.253c5.945,0 11.79,-1.448 17.243,-4.385c8.192,-4.412 15.471,-12.071 21.289,-22.919c5.818,-10.862 10.202,-24.929 12.605,-42.382l-2.783,-0.379" style="fill:#322e2e;fill-rule:nonzero;"/>
			<path id="change3_2" d="M241.559,153.507c-1.307,-4.553 -2.881,-9.12 -4.694,-13.715c2.755,-7.982 4.919,-17.214 6.38,-27.725c4.848,-35.201 -12.001,-76.585 -21.711,-96.806c1.841,-2.136 3.485,-3.977 4.862,-5.495c0.731,-0.801 1.391,-1.531 1.968,-2.136c2.684,5.073 7.981,15.57 13.139,28.906c6.941,17.874 13.616,40.864 13.602,62.462c0,4.286 -0.267,8.544 -0.829,12.675l2.782,0.394l-2.782,-0.379c-2.445,17.691 -6.956,31.575 -12.717,41.819" style="fill:#6d9b52;fill-rule:nonzero;"/>
			<path id="change4_2" d="M242.585,157.287c-0.324,-1.25 -0.675,-2.515 -1.026,-3.78c5.761,-10.244 10.272,-24.128 12.717,-41.819l2.782,0.379l-2.782,-0.394c0.562,-4.131 0.829,-8.389 0.829,-12.675c0.014,-21.598 -6.661,-44.588 -13.602,-62.462c-5.158,-13.336 -10.455,-23.833 -13.139,-28.906c-0.577,0.605 -1.237,1.335 -1.968,2.136c-1.377,1.518 -3.021,3.359 -4.862,5.495c-0.463,-0.956 -0.899,-1.869 -1.335,-2.74c5.27,-6.071 8.783,-9.626 8.783,-9.626c0,0 34.793,60.523 28.076,109.172c-2.67,19.35 -7.799,34.358 -14.473,45.22" style="fill:#2f2b2b;fill-rule:nonzero;"/>
			<path id="change5_1" d="M106.474,26.348c27.978,6.647 58.163,23.706 84.215,49.759c53.09,53.076 68.829,123.407 35.173,157.063c-0.899,0.899 -1.798,1.742 -2.754,2.543c-4.075,3.583 -8.628,6.52 -13.56,8.811c-36.888,17.115 -95.176,-0.942 -140.762,-46.527c-53.076,-53.076 -68.828,-123.407 -35.159,-157.063c0.914,-0.913 1.855,-1.784 2.811,-2.627c4.061,-3.542 8.571,-6.436 13.462,-8.713c10.37,-4.82 22.441,-6.857 35.454,-6.281l21.12,3.035" style="fill:#bb5043;fill-rule:nonzero;"/>
			<path id="change2_3" d="M105.828,29.088c27.374,6.492 57.164,23.285 82.88,49.001c16.863,16.876 29.903,35.496 38.7,54.045c8.797,18.563 13.35,37.027 13.35,53.567c0,9.134 -1.391,17.678 -4.188,25.336c-2.796,7.673 -7.012,14.46 -12.703,20.151c-0.829,0.829 -1.7,1.63 -2.586,2.389l-0.028,0.028c-3.864,3.401 -8.178,6.183 -12.9,8.375c-8.782,4.075 -18.942,6.099 -29.973,6.099c-16.526,0 -35.005,-4.553 -53.554,-13.35c-18.549,-8.81 -37.182,-21.837 -54.045,-38.714c-16.876,-16.862 -29.903,-35.496 -38.714,-54.045c-8.796,-18.563 -13.349,-37.028 -13.349,-53.567c0,-9.134 1.391,-17.678 4.187,-25.336c2.811,-7.673 7.012,-14.46 12.703,-20.151c0.858,-0.858 1.757,-1.687 2.67,-2.474l0.014,-0.014c3.837,-3.358 8.137,-6.112 12.802,-8.276l-0.014,0c8.811,-4.09 18.971,-6.127 30.016,-6.127c1.363,0 2.74,0.042 4.131,0.098c1.546,0.07 2.853,-1.124 2.923,-2.684c0.07,-1.546 -1.124,-2.852 -2.684,-2.937c-1.476,-0.056 -2.923,-0.098 -4.37,-0.098c-11.734,0 -22.723,2.15 -32.377,6.647l-0.014,0c-5.101,2.389 -9.85,5.424 -14.122,9.148l0.028,-0.014c-1.026,0.871 -2.01,1.798 -2.979,2.768c-6.296,6.281 -10.947,13.813 -13.996,22.174c-3.064,8.376 -4.539,17.566 -4.539,27.276c0,17.565 4.806,36.789 13.897,55.97c9.092,19.182 22.498,38.307 39.811,55.619c17.312,17.298 36.437,30.718 55.604,39.81c19.182,9.092 38.419,13.898 55.971,13.898c11.705,0 22.694,-2.15 32.348,-6.633c5.171,-2.403 9.949,-5.466 14.235,-9.232l-1.855,-2.122l1.841,2.136c0.998,-0.857 1.953,-1.743 2.895,-2.698c6.309,-6.296 10.946,-13.813 14.01,-22.175c3.049,-8.375 4.525,-17.565 4.525,-27.275c0,-17.565 -4.806,-36.789 -13.898,-55.97c-9.092,-19.182 -22.498,-38.307 -39.81,-55.619c-26.376,-26.376 -56.968,-43.689 -85.55,-50.49c-1.518,-0.351 -3.022,0.576 -3.387,2.08c-0.351,1.517 0.576,3.035 2.094,3.386" style="fill:#322e2e;fill-rule:nonzero;"/>
			<path id="change6_1" d="M223.108,235.713c-4.075,3.583 -8.628,6.52 -13.56,8.811c-0.422,-4.581 -0.914,-9.5 -1.644,-14.39c-0.759,-5.03 -1.701,-9.555 -2.881,-13.771c-1.223,-4.412 -2.768,-8.726 -4.581,-12.83c-1.799,-4.033 -3.949,-8.08 -6.394,-12c-2.375,-3.837 -5.059,-7.589 -7.954,-11.186c-2.908,-3.583 -6,-6.956 -9.204,-10.033c-3.288,-3.148 -6.759,-6.043 -10.314,-8.586c-3.555,-2.572 -7.42,-4.933 -11.467,-7.069c-1.518,-0.787 -3.12,-1.573 -4.792,-2.332c-5.424,-2.516 -11.27,-4.792 -17.382,-6.788c-1.897,-0.618 -3.78,-1.222 -5.678,-1.826c-5.255,-1.658 -10.693,-3.373 -16.019,-5.453c-5.256,-2.051 -9.935,-4.173 -14.305,-6.52c-4.666,-2.473 -9.162,-5.312 -13.364,-8.389c-4.174,-3.078 -8.235,-6.534 -12.043,-10.272c-0.309,-0.309 -0.632,-0.605 -0.927,-0.914c-3.415,-3.414 -6.661,-7.082 -9.682,-10.904c-3.317,-4.216 -6.352,-8.642 -9.008,-13.153c-2.726,-4.637 -5.115,-9.457 -7.082,-14.334c-1.968,-4.834 -3.626,-9.977 -4.919,-15.288c-1.18,-4.806 -2.135,-9.992 -2.922,-15.837c-0.183,-1.363 -0.366,-2.797 -0.548,-4.342c4.061,-3.542 8.571,-6.436 13.462,-8.713c0.056,0.351 0.098,0.703 0.14,1.068c0.113,0.857 0.225,1.7 0.309,2.544c0.295,2.824 0.576,5.283 0.9,7.532c0.702,5.339 1.559,10.033 2.627,14.319c1.139,4.637 2.558,9.12 4.272,13.321c1.701,4.216 3.78,8.39 6.155,12.423c2.333,3.948 5.003,7.855 7.926,11.565c2.895,3.681 6.056,7.194 9.359,10.426c3.33,3.275 6.871,6.296 10.511,8.966c3.639,2.67 7.546,5.129 11.607,7.293c3.864,2.066 8.038,3.977 12.759,5.804c4.891,1.911 9.865,3.484 15.121,5.143c1.939,0.618 3.878,1.236 5.817,1.869c6.633,2.164 13.027,4.651 18.957,7.391c1.869,0.871 3.695,1.757 5.396,2.656c4.665,2.431 9.106,5.171 13.223,8.122c4.089,2.951 8.094,6.282 11.846,9.893c3.654,3.499 7.167,7.321 10.441,11.368c3.274,4.061 6.295,8.305 8.993,12.619c2.797,4.497 5.27,9.134 7.322,13.772c2.122,4.749 3.892,9.738 5.311,14.811c1.335,4.82 2.389,9.878 3.232,15.499c0.394,2.6 0.717,5.186 0.984,7.715" style="fill:#a93d36;fill-rule:nonzero;"/>
			<path id="change2_4" d="M223.108,235.713l-1.855,-2.108c-3.864,3.401 -8.178,6.183 -12.9,8.375l1.195,2.544l2.796,-0.253c-0.422,-4.609 -0.913,-9.57 -1.672,-14.558c-0.759,-5.129 -1.729,-9.767 -2.951,-14.109l0.014,0c-1.265,-4.539 -2.853,-8.979 -4.722,-13.223c-1.855,-4.16 -4.061,-8.305 -6.576,-12.338c-2.445,-3.935 -5.199,-7.785 -8.15,-11.453l0,-0.014c-2.994,-3.667 -6.155,-7.138 -9.458,-10.3c-3.372,-3.232 -6.941,-6.211 -10.609,-8.839c-3.668,-2.642 -7.645,-5.087 -11.804,-7.265l-0.014,0c-1.56,-0.801 -3.204,-1.616 -4.904,-2.403c-5.523,-2.557 -11.481,-4.876 -17.692,-6.899c-1.911,-0.633 -3.808,-1.237 -5.705,-1.841c-5.256,-1.644 -10.624,-3.359 -15.851,-5.382c-5.158,-2.024 -9.725,-4.104 -13.982,-6.38l-0.014,0c-4.553,-2.417 -8.938,-5.185 -13.013,-8.178c-4.061,-2.994 -8.024,-6.366 -11.762,-10.02l0.028,0.014c-0.351,-0.337 -0.66,-0.632 -0.927,-0.899c-3.33,-3.33 -6.506,-6.914 -9.457,-10.666c-3.246,-4.117 -6.197,-8.445 -8.797,-12.829l0.014,0c-2.67,-4.525 -5.002,-9.219 -6.914,-13.968c-1.911,-4.708 -3.527,-9.711 -4.791,-14.896c-1.153,-4.693 -2.094,-9.78 -2.867,-15.542l0,-0.014c-0.183,-1.349 -0.365,-2.768 -0.534,-4.286l-2.796,0.324l1.854,2.121c3.837,-3.358 8.137,-6.112 12.802,-8.276l-1.194,-2.558l-2.769,0.422c0.028,0.281 0.071,0.632 0.127,1.025l2.782,-0.379l-2.782,0.351c0.112,0.844 0.211,1.673 0.295,2.502l2.796,-0.309l-2.796,0.267c0.295,2.866 0.576,5.353 0.913,7.658l0,-0.028c0.717,5.424 1.588,10.216 2.67,14.628c1.167,4.75 2.642,9.359 4.413,13.701c1.756,4.342 3.892,8.642 6.337,12.802c2.403,4.047 5.129,8.052 8.137,11.874l0,-0.014c2.965,3.794 6.211,7.392 9.597,10.708c3.429,3.358 7.069,6.464 10.82,9.218c3.738,2.754 7.757,5.284 11.945,7.518c3.963,2.108 8.249,4.061 13.055,5.944l0,-0.014c5.016,1.968 10.047,3.555 15.302,5.214l0,-0.014c1.94,0.632 3.865,1.236 5.79,1.869c6.534,2.121 12.83,4.581 18.647,7.265l-0.014,0c1.855,0.857 3.626,1.728 5.284,2.599l0.014,0.014c4.539,2.361 8.867,5.031 12.872,7.912c3.991,2.866 7.883,6.112 11.551,9.626c3.555,3.414 6.984,7.152 10.202,11.115l-0.014,0c3.204,3.963 6.169,8.122 8.811,12.338c2.726,4.384 5.129,8.909 7.124,13.42c2.066,4.637 3.794,9.485 5.171,14.431c1.307,4.68 2.333,9.626 3.162,15.149c0.379,2.571 0.703,5.115 0.984,7.616l2.782,-0.309l-1.855,-2.108l1.855,2.108l2.796,-0.295c-0.266,-2.572 -0.604,-5.185 -1.011,-7.841c-0.857,-5.706 -1.925,-10.891 -3.289,-15.823c-1.461,-5.214 -3.288,-10.329 -5.452,-15.205c-2.108,-4.763 -4.637,-9.513 -7.504,-14.122c-2.754,-4.413 -5.845,-8.755 -9.204,-12.886l0,-0.014c-3.344,-4.132 -6.928,-8.052 -10.666,-11.622c-3.864,-3.695 -7.953,-7.11 -12.169,-10.145c-4.216,-3.036 -8.769,-5.846 -13.546,-8.333l0.014,0c-1.771,-0.928 -3.626,-1.827 -5.537,-2.712l0,-0.014c-6.042,-2.797 -12.534,-5.312 -19.266,-7.504c-1.953,-0.647 -3.892,-1.265 -5.831,-1.869l-0.014,-0.014c-5.256,-1.658 -10.174,-3.204 -14.952,-5.073c-4.623,-1.799 -8.698,-3.668 -12.45,-5.663c-3.935,-2.094 -7.729,-4.497 -11.256,-7.083c-3.527,-2.585 -6.97,-5.522 -10.23,-8.712c-3.204,-3.134 -6.282,-6.562 -9.106,-10.16c-2.853,-3.611 -5.438,-7.405 -7.715,-11.242l0.014,0c-2.318,-3.92 -4.328,-7.981 -5.972,-12.057c-1.658,-4.075 -3.049,-8.431 -4.159,-12.928c-1.04,-4.187 -1.869,-8.768 -2.572,-14.038l0,-0.014c-0.309,-2.192 -0.604,-4.623 -0.885,-7.42l0,-0.042c-0.099,-0.857 -0.197,-1.714 -0.309,-2.585l-0.014,-0.028c-0.043,-0.324 -0.085,-0.703 -0.141,-1.096c-0.141,-0.872 -0.675,-1.645 -1.461,-2.052c-0.773,-0.422 -1.701,-0.436 -2.516,-0.07c-5.101,2.389 -9.85,5.424 -14.122,9.148c-0.689,0.604 -1.04,1.517 -0.928,2.431c0.183,1.545 0.352,3.007 0.548,4.398l0,-0.014c0.787,5.944 1.757,11.228 2.965,16.132c1.335,5.452 3.036,10.722 5.045,15.682c2.024,5.017 4.483,9.949 7.279,14.713c2.726,4.609 5.818,9.134 9.218,13.448c3.078,3.921 6.394,7.673 9.893,11.172c0.352,0.337 0.661,0.632 0.942,0.913l0.014,0.014c3.906,3.822 8.066,7.364 12.352,10.525l0,0.014c4.314,3.148 8.909,6.043 13.701,8.6c4.482,2.389 9.26,4.567 14.6,6.647c5.452,2.122 10.947,3.865 16.188,5.523c1.911,0.604 3.794,1.194 5.663,1.812c6.015,1.954 11.762,4.216 17.074,6.661c1.63,0.759 3.19,1.518 4.665,2.291c3.935,2.065 7.701,4.37 11.144,6.843c3.428,2.473 6.801,5.284 9.991,8.333c3.119,2.993 6.141,6.282 8.979,9.781c2.811,3.499 5.439,7.166 7.743,10.89l0,0.014c2.389,3.808 4.469,7.729 6.211,11.649c1.771,3.977 3.26,8.151 4.441,12.437c1.152,4.103 2.065,8.501 2.81,13.434c0.717,4.806 1.209,9.668 1.63,14.235c0.07,0.913 0.604,1.728 1.391,2.178c0.787,0.464 1.757,0.506 2.586,0.112c5.171,-2.403 9.949,-5.466 14.235,-9.232c0.689,-0.604 1.04,-1.518 0.941,-2.417l-2.796,0.295" style="fill:#322e2e;fill-rule:nonzero;"/>
			<path id="change7_1" d="M179.448,248.065c3.344,-0.942 6.576,-2.108 9.64,-3.527c4.946,-2.305 9.499,-5.228 13.574,-8.811c0.942,-0.801 1.855,-1.658 2.74,-2.543l0.085,-0.085c0.435,3.26 0.772,6.521 1.068,9.682c-8.081,3.415 -17.229,5.172 -27.107,5.284m45.768,-18.282c-0.098,-0.731 -0.197,-1.462 -0.323,-2.206c-0.857,-5.706 -1.925,-10.891 -3.289,-15.823c-0.421,-1.49 -0.857,-2.951 -1.334,-4.427c10.44,-36.859 -8.207,-89.386 -50.027,-131.22c-26.053,-26.039 -56.251,-43.098 -84.229,-49.745l-1.995,-0.281c0.407,0.014 0.801,0.028 1.208,0.042l0.127,0c1.391,0 2.585,-1.026 2.768,-2.403l15.57,2.235c-0.211,1.433 0.702,2.796 2.136,3.133c27.374,6.492 57.164,23.285 82.88,49.001c16.863,16.876 29.903,35.496 38.7,54.045c8.797,18.563 13.35,37.027 13.35,53.567c0,9.134 -1.391,17.678 -4.188,25.336c-2.571,7.054 -6.337,13.35 -11.354,18.746" style="fill:#ad4b3f;fill-rule:nonzero;"/>
			<path id="change4_3" d="M178.436,250.861c-3.429,0 -6.942,-0.182 -10.497,-0.562c3.977,-0.463 7.827,-1.194 11.509,-2.234c9.878,-0.112 19.026,-1.869 27.107,-5.284c0.07,0.661 0.126,1.335 0.196,1.996c0.028,0.309 0.099,0.59 0.225,0.871c-8.586,3.513 -18.24,5.213 -28.54,5.213m47.244,-17.509c-0.141,-1.18 -0.295,-2.361 -0.464,-3.569c5.017,-5.396 8.783,-11.692 11.354,-18.746c2.797,-7.658 4.188,-16.202 4.188,-25.336c0,-16.54 -4.553,-35.004 -13.35,-53.567c-8.797,-18.549 -21.837,-37.169 -38.7,-54.045c-25.716,-25.716 -55.506,-42.509 -82.88,-49.001c-1.434,-0.337 -2.347,-1.7 -2.136,-3.133l2.782,0.393c27.978,6.647 58.163,23.706 84.215,49.759c53.09,53.076 68.829,123.407 35.173,157.063l-0.182,0.182m-140.326,-207.229l-0.127,0c-0.407,-0.014 -0.801,-0.028 -1.208,-0.042l-14.418,-2.08c3.78,-0.506 7.673,-0.773 11.677,-0.773c1.349,0 2.698,0.029 4.076,0.085l2.768,0.407c-0.183,1.377 -1.377,2.403 -2.768,2.403" style="fill:#2f2b2b;fill-rule:nonzero;"/>
			<path id="change8_1" d="M211.951,240.154c-0.338,-3.387 -0.745,-6.914 -1.279,-10.441c-0.113,-0.731 -0.211,-1.462 -0.337,-2.178c2.641,-3.457 4.848,-7.195 6.66,-11.186c0.928,3.766 1.701,7.743 2.347,12.057c0.309,2.065 0.576,4.117 0.815,6.141c-2.557,2.122 -5.298,3.99 -8.206,5.607" style="fill:#9c3a33;fill-rule:nonzero;"/>
			<path id="change4_4" d="M206.976,245.648c-0.126,-0.281 -0.197,-0.562 -0.225,-0.871c-0.07,-0.661 -0.126,-1.335 -0.196,-1.996c-0.296,-3.161 -0.633,-6.422 -1.068,-9.682c1.742,-1.756 3.358,-3.611 4.848,-5.564c0.126,0.716 0.224,1.447 0.337,2.178c0.534,3.527 0.941,7.054 1.279,10.441c2.908,-1.617 5.649,-3.485 8.206,-5.607c-0.239,-2.024 -0.506,-4.076 -0.815,-6.141c-0.646,-4.314 -1.419,-8.291 -2.347,-12.057c1.293,-2.881 2.389,-5.888 3.275,-9.022c0.477,1.476 0.913,2.937 1.334,4.427c1.364,4.932 2.432,10.117 3.289,15.823c0.126,0.744 0.225,1.475 0.323,2.206c0.169,1.208 0.323,2.389 0.464,3.569c-0.843,0.829 -1.687,1.616 -2.572,2.361c-4.075,3.583 -8.628,6.52 -13.56,8.811c-0.858,0.393 -1.715,0.773 -2.572,1.124" style="fill:#2f2b2b;fill-rule:nonzero;"/>
		</g>
		<text class="svg-text-cafe" x="361.022px" y="89.158px" style="font-family:'Palatino-Bold', 'Palatino';font-weight:700;font-size:87.155px;">C
			<tspan x="445.751px 511.117px 566.823px " y="89.158px 89.158px 89.158px ">afé</tspan>
		</text>
		<text class="svg-text-perfeito" x="359.822px" y="238.035px" style="font-family:'Palatino-Bold', 'Palatino';font-weight:700;font-size:182.744px;">P
			<tspan x="476.932px 594.042px 731.496px 838.612px 955.722px 1032.32px 1159.69px " y="238.035px 238.035px 238.035px 238.035px 238.035px 238.035px 238.035px ">ERFEITO</tspan>
		</text>
	</g>
</svg>
