<?xml version="1.0" encoding="UTF-8" standalone="no"?><!DOCTYPE svg PUBLIC "-//W3C//DTD SVG 1.1//EN" "http://www.w3.org/Graphics/SVG/1.1/DTD/svg11.dtd"><svg width="100%" height="100%" viewBox="0 0 341 41" version="1.1" xmlns="http://www.w3.org/2000/svg" xmlns:xlink="http://www.w3.org/1999/xlink" xml:space="preserve" xmlns:serif="http://www.serif.com/" style="fill-rule:evenodd;clip-rule:evenodd;stroke-linejoin:round;stroke-miterlimit:1.41421;"><g id="Logo"><g id="surface1"><path id="change1_1" d="M47.529,9.477c2.634,-0.78 4.569,-1.098 4.569,-1.098c0,0 -1.14,10.825 -6.436,16.357c-5.296,5.533 -10.035,6.169 -12.744,3.675c-2.708,-2.491 -2.36,-7.17 2.936,-12.702c2.474,-2.584 6.18,-4.352 9.429,-5.505l2.246,-0.727" style="fill:#77a657;fill-rule:nonzero;"/><path id="change2_1" d="M47.652,9.895c1.306,-0.385 2.436,-0.657 3.243,-0.832c0.401,-0.086 0.721,-0.149 0.94,-0.191c0.109,-0.02 0.193,-0.037 0.25,-0.046c0.028,-0.004 0.05,-0.009 0.063,-0.011l0.02,-0.002l-0.07,-0.434l-0.436,-0.046l-0.005,0.029c-0.033,0.304 -0.355,3.026 -1.303,6.321c-0.474,1.646 -1.103,3.438 -1.926,5.141c-0.824,1.702 -1.841,3.313 -3.081,4.608c-1.668,1.742 -3.267,2.98 -4.746,3.777c-1.482,0.8 -2.838,1.157 -4.019,1.157c-1.341,-0.002 -2.465,-0.449 -3.368,-1.277c-0.491,-0.451 -0.87,-0.977 -1.126,-1.571c-0.257,-0.596 -0.395,-1.26 -0.395,-1.999c0,-1.128 0.327,-2.43 1.05,-3.863c0.725,-1.43 1.847,-2.995 3.427,-4.645c1.196,-1.249 2.706,-2.314 4.321,-3.208c1.613,-0.894 3.331,-1.615 4.937,-2.187c0.228,-0.079 0.348,-0.331 0.267,-0.558c-0.081,-0.228 -0.331,-0.349 -0.559,-0.268c-1.641,0.583 -3.4,1.322 -5.07,2.246c-1.67,0.925 -3.25,2.036 -4.529,3.37c-1.626,1.698 -2.803,3.327 -3.576,4.856c-0.772,1.527 -1.144,2.96 -1.144,4.257c0,0.846 0.16,1.635 0.467,2.345c0.306,0.71 0.76,1.339 1.336,1.871c1.056,0.973 2.422,1.51 3.962,1.508c1.361,0 2.855,-0.41 4.433,-1.262c1.58,-0.853 3.247,-2.15 4.965,-3.942c1.367,-1.429 2.452,-3.182 3.317,-5.005c1.3,-2.735 2.104,-5.629 2.588,-7.844c0.484,-2.216 0.647,-3.754 0.649,-3.765c0.013,-0.136 -0.037,-0.272 -0.136,-0.364c-0.099,-0.094 -0.237,-0.135 -0.373,-0.114c-0.01,0.003 -1.961,0.323 -4.621,1.109c-0.232,0.068 -0.366,0.311 -0.296,0.544c0.068,0.232 0.312,0.366 0.544,0.295" style="fill:#322e2e;fill-rule:nonzero;"/><path id="change3_1" d="M38.418,29.106l0,-0.149c0,-0.443 -0.02,-0.89 -0.059,-1.344c1.808,-0.773 3.782,-2.184 5.844,-4.338c3.782,-3.949 5.443,-10.595 6.085,-14.074c0.217,-0.053 0.421,-0.097 0.607,-0.138c0.269,-0.057 0.502,-0.105 0.692,-0.143c-0.14,1.008 -0.499,3.215 -1.233,5.763c-0.474,1.646 -1.103,3.438 -1.926,5.141c-0.824,1.702 -1.841,3.313 -3.081,4.608c-1.668,1.742 -3.267,2.98 -4.746,3.777c-0.763,0.412 -1.495,0.708 -2.183,0.897" style="fill:#6d9b52;fill-rule:nonzero;"/><path id="change4_1" d="M38.405,29.561c0.007,-0.151 0.011,-0.304 0.013,-0.455c0.688,-0.189 1.42,-0.485 2.183,-0.897c1.479,-0.797 3.078,-2.035 4.746,-3.777c1.24,-1.295 2.257,-2.906 3.081,-4.608c0.823,-1.703 1.452,-3.495 1.926,-5.141c0.734,-2.548 1.093,-4.755 1.233,-5.763c-0.19,0.038 -0.423,0.086 -0.692,0.143c-0.186,0.041 -0.39,0.085 -0.607,0.138c0.028,-0.165 0.057,-0.32 0.083,-0.469c1.067,-0.243 1.727,-0.353 1.727,-0.353c0,0 -1.14,10.825 -6.436,16.357c-2.614,2.728 -5.092,4.267 -7.257,4.825" style="fill:#2f2b2b;fill-rule:nonzero;"/><path id="change1_2" d="M40.083,17.475c-1.047,7.588 -4.511,10.881 -8.168,10.45c-3.655,-0.43 -6.116,-4.424 -5.071,-12.01c1.048,-7.588 8.861,-15.464 8.861,-15.464c0,0 5.426,9.438 4.378,17.024" style="fill:#77a657;fill-rule:nonzero;"/><path id="change2_2" d="M40.083,17.475l-0.433,-0.059c-0.485,3.521 -1.501,6.074 -2.772,7.717c-0.636,0.822 -1.332,1.418 -2.06,1.81c-0.73,0.392 -1.492,0.581 -2.274,0.581c-0.191,0 -0.384,-0.011 -0.579,-0.033c-0.708,-0.084 -1.358,-0.311 -1.946,-0.684c-0.876,-0.557 -1.617,-1.444 -2.143,-2.702c-0.528,-1.257 -0.837,-2.881 -0.837,-4.877c0,-0.993 0.077,-2.08 0.239,-3.254c0.254,-1.834 0.92,-3.71 1.788,-5.485c1.297,-2.664 3.039,-5.103 4.455,-6.871c0.705,-0.886 1.332,-1.6 1.781,-2.095c0.224,-0.248 0.403,-0.438 0.526,-0.568c0.062,-0.065 0.11,-0.114 0.14,-0.146l0.038,-0.038l0.011,-0.011l-0.312,-0.309l-0.379,0.22l0.011,0.019c0.125,0.222 1.241,2.218 2.321,5.007c1.082,2.787 2.123,6.372 2.121,9.74c0,0.668 -0.042,1.332 -0.129,1.976l0.433,0.062l0.434,0.059c0.095,-0.69 0.138,-1.391 0.138,-2.097c-0.002,-3.662 -1.148,-7.446 -2.287,-10.329c-1.14,-2.884 -2.275,-4.863 -2.283,-4.876c-0.068,-0.116 -0.189,-0.197 -0.323,-0.214c-0.135,-0.018 -0.271,0.028 -0.368,0.124c-0.011,0.011 -1.978,1.994 -4.082,4.942c-1.054,1.472 -2.141,3.188 -3.035,5.02c-0.894,1.836 -1.595,3.79 -1.867,5.749c-0.166,1.212 -0.247,2.336 -0.247,3.375c0.002,2.778 0.57,4.945 1.573,6.492c0.502,0.772 1.115,1.385 1.814,1.828c0.699,0.444 1.482,0.716 2.312,0.813c0.228,0.026 0.456,0.039 0.682,0.039c0.926,0 1.838,-0.226 2.688,-0.684c1.278,-0.688 2.413,-1.882 3.32,-3.573c0.907,-1.694 1.591,-3.888 1.965,-6.609l-0.434,-0.059" style="fill:#322e2e;fill-rule:nonzero;"/><path id="change3_2" d="M37.667,23.937c-0.204,-0.71 -0.45,-1.422 -0.732,-2.139c0.429,-1.245 0.767,-2.684 0.995,-4.323c0.755,-5.489 -1.872,-11.942 -3.386,-15.095c0.287,-0.333 0.544,-0.62 0.758,-0.857c0.114,-0.125 0.217,-0.239 0.307,-0.333c0.419,0.791 1.245,2.428 2.049,4.507c1.082,2.787 2.123,6.372 2.121,9.74c0,0.668 -0.042,1.332 -0.129,1.976l0.433,0.062l-0.433,-0.059c-0.382,2.758 -1.085,4.923 -1.983,6.521" style="fill:#6d9b52;fill-rule:nonzero;"/><path id="change4_2" d="M37.827,24.526c-0.051,-0.195 -0.106,-0.392 -0.16,-0.589c0.898,-1.598 1.601,-3.763 1.983,-6.521l0.433,0.059l-0.433,-0.062c0.087,-0.644 0.129,-1.308 0.129,-1.976c0.002,-3.368 -1.039,-6.953 -2.121,-9.74c-0.804,-2.079 -1.63,-3.716 -2.049,-4.507c-0.09,0.094 -0.193,0.208 -0.307,0.333c-0.214,0.237 -0.471,0.524 -0.758,0.857c-0.072,-0.149 -0.14,-0.292 -0.208,-0.428c0.822,-0.946 1.369,-1.501 1.369,-1.501c0,0 5.426,9.438 4.378,17.024c-0.416,3.017 -1.216,5.357 -2.256,7.051" style="fill:#2f2b2b;fill-rule:nonzero;"/><path id="change5_1" d="M16.603,4.108c4.362,1.037 9.069,3.697 13.131,7.759c8.279,8.277 10.733,19.244 5.485,24.491c-0.14,0.141 -0.28,0.272 -0.429,0.397c-0.636,0.559 -1.346,1.017 -2.115,1.374c-5.752,2.669 -14.841,-0.147 -21.949,-7.255c-8.276,-8.276 -10.733,-19.243 -5.482,-24.491c0.142,-0.142 0.289,-0.278 0.438,-0.41c0.633,-0.552 1.336,-1.003 2.099,-1.358c1.617,-0.752 3.499,-1.07 5.528,-0.98l3.294,0.473" style="fill:#bb5043;fill-rule:nonzero;"/><path id="change2_3" d="M16.502,4.536c4.268,1.012 8.914,3.631 12.924,7.64c2.629,2.632 4.662,5.535 6.034,8.428c1.372,2.894 2.082,5.774 2.082,8.353c0,1.424 -0.217,2.756 -0.653,3.95c-0.436,1.197 -1.094,2.255 -1.981,3.142c-0.129,0.13 -0.265,0.255 -0.403,0.373l-0.005,0.004c-0.602,0.531 -1.275,0.965 -2.011,1.306c-1.37,0.636 -2.954,0.951 -4.674,0.951c-2.577,0 -5.458,-0.71 -8.351,-2.081c-2.892,-1.374 -5.798,-3.405 -8.427,-6.037c-2.632,-2.629 -4.663,-5.535 -6.037,-8.427c-1.371,-2.895 -2.081,-5.774 -2.081,-8.353c0,-1.424 0.217,-2.757 0.653,-3.951c0.438,-1.196 1.093,-2.255 1.98,-3.142c0.134,-0.134 0.274,-0.263 0.417,-0.386l0.002,-0.002c0.598,-0.524 1.269,-0.953 1.996,-1.291l-0.002,0c1.374,-0.637 2.958,-0.955 4.68,-0.955c0.213,0 0.428,0.007 0.645,0.015c0.241,0.011 0.444,-0.175 0.455,-0.418c0.011,-0.241 -0.175,-0.445 -0.418,-0.458c-0.23,-0.009 -0.456,-0.015 -0.682,-0.015c-1.829,0 -3.543,0.335 -5.048,1.036l-0.002,0c-0.796,0.373 -1.536,0.846 -2.202,1.427l0.004,-0.003c-0.16,0.136 -0.313,0.281 -0.465,0.432c-0.981,0.979 -1.707,2.154 -2.182,3.458c-0.478,1.306 -0.708,2.739 -0.708,4.253c0,2.739 0.75,5.736 2.167,8.727c1.418,2.991 3.508,5.973 6.208,8.673c2.699,2.697 5.682,4.79 8.67,6.208c2.991,1.417 5.991,2.167 8.728,2.167c1.825,0 3.539,-0.335 5.044,-1.034c0.806,-0.375 1.551,-0.853 2.22,-1.44l-0.289,-0.331l0.287,0.333c0.155,-0.134 0.304,-0.272 0.451,-0.421c0.984,-0.981 1.707,-2.154 2.185,-3.457c0.475,-1.306 0.705,-2.739 0.705,-4.253c0,-2.739 -0.749,-5.737 -2.167,-8.728c-1.418,-2.991 -3.508,-5.973 -6.208,-8.673c-4.112,-4.113 -8.883,-6.812 -13.34,-7.873c-0.236,-0.054 -0.471,0.09 -0.528,0.325c-0.054,0.236 0.09,0.473 0.327,0.528" style="fill:#322e2e;fill-rule:nonzero;"/><path id="change6_1" d="M34.79,36.755c-0.636,0.559 -1.346,1.017 -2.115,1.374c-0.066,-0.714 -0.142,-1.481 -0.256,-2.244c-0.119,-0.784 -0.265,-1.49 -0.45,-2.147c-0.19,-0.688 -0.431,-1.361 -0.714,-2.001c-0.28,-0.629 -0.616,-1.26 -0.997,-1.871c-0.37,-0.598 -0.789,-1.183 -1.24,-1.744c-0.454,-0.559 -0.936,-1.085 -1.435,-1.565c-0.513,-0.491 -1.054,-0.942 -1.609,-1.339c-0.554,-0.401 -1.157,-0.769 -1.788,-1.102c-0.236,-0.122 -0.486,-0.245 -0.747,-0.363c-0.846,-0.393 -1.757,-0.748 -2.71,-1.059c-0.296,-0.096 -0.59,-0.19 -0.886,-0.285c-0.819,-0.258 -1.667,-0.526 -2.498,-0.85c-0.819,-0.32 -1.549,-0.651 -2.23,-1.017c-0.728,-0.385 -1.429,-0.828 -2.084,-1.308c-0.651,-0.48 -1.284,-1.019 -1.878,-1.601c-0.048,-0.049 -0.098,-0.095 -0.144,-0.143c-0.533,-0.532 -1.039,-1.104 -1.51,-1.7c-0.517,-0.658 -0.991,-1.348 -1.405,-2.051c-0.425,-0.723 -0.797,-1.475 -1.104,-2.235c-0.307,-0.754 -0.565,-1.556 -0.767,-2.384c-0.184,-0.75 -0.333,-1.558 -0.456,-2.47c-0.028,-0.212 -0.057,-0.436 -0.085,-0.677c0.633,-0.552 1.336,-1.003 2.099,-1.358c0.009,0.054 0.015,0.109 0.022,0.166c0.017,0.134 0.035,0.265 0.048,0.397c0.046,0.44 0.09,0.824 0.14,1.174c0.11,0.833 0.244,1.565 0.41,2.233c0.178,0.723 0.399,1.422 0.666,2.077c0.265,0.658 0.59,1.308 0.96,1.937c0.364,0.616 0.78,1.225 1.236,1.804c0.451,0.574 0.944,1.122 1.459,1.626c0.519,0.51 1.072,0.981 1.639,1.398c0.568,0.416 1.177,0.799 1.81,1.137c0.603,0.322 1.253,0.62 1.99,0.905c0.762,0.298 1.538,0.543 2.357,0.802c0.303,0.096 0.605,0.193 0.907,0.291c1.035,0.338 2.032,0.725 2.956,1.153c0.292,0.136 0.577,0.274 0.842,0.414c0.727,0.379 1.42,0.806 2.062,1.266c0.637,0.461 1.262,0.98 1.847,1.543c0.57,0.546 1.117,1.142 1.628,1.773c0.511,0.633 0.982,1.295 1.402,1.967c0.436,0.702 0.822,1.425 1.142,2.148c0.331,0.74 0.607,1.518 0.828,2.309c0.208,0.752 0.373,1.541 0.504,2.417c0.062,0.405 0.112,0.809 0.154,1.203" style="fill:#a93d36;fill-rule:nonzero;"/><path id="change2_4" d="M34.79,36.755l-0.29,-0.329c-0.602,0.531 -1.275,0.965 -2.011,1.306l0.186,0.397l0.436,-0.04c-0.066,-0.718 -0.142,-1.492 -0.261,-2.27c-0.118,-0.799 -0.269,-1.522 -0.46,-2.2l0.002,0c-0.197,-0.707 -0.444,-1.4 -0.736,-2.061c-0.289,-0.649 -0.633,-1.295 -1.025,-1.924c-0.382,-0.614 -0.811,-1.214 -1.271,-1.786l0,-0.002c-0.467,-0.572 -0.96,-1.113 -1.475,-1.606c-0.526,-0.504 -1.082,-0.969 -1.654,-1.379c-0.572,-0.412 -1.192,-0.793 -1.841,-1.133l-0.002,0c-0.243,-0.124 -0.5,-0.252 -0.765,-0.374c-0.861,-0.399 -1.79,-0.761 -2.758,-1.076c-0.298,-0.099 -0.594,-0.193 -0.89,-0.287c-0.82,-0.257 -1.657,-0.524 -2.472,-0.839c-0.804,-0.316 -1.516,-0.64 -2.18,-0.995l-0.002,0c-0.71,-0.377 -1.394,-0.809 -2.029,-1.275c-0.633,-0.467 -1.251,-0.993 -1.834,-1.563l0.004,0.002c-0.055,-0.052 -0.103,-0.098 -0.144,-0.14c-0.52,-0.519 -1.015,-1.078 -1.475,-1.663c-0.506,-0.642 -0.966,-1.317 -1.372,-2.001l0.002,0c-0.416,-0.705 -0.78,-1.437 -1.078,-2.178c-0.298,-0.734 -0.55,-1.514 -0.747,-2.322c-0.18,-0.732 -0.326,-1.525 -0.447,-2.424l0,-0.002c-0.028,-0.21 -0.057,-0.432 -0.083,-0.668l-0.436,0.05l0.289,0.331c0.598,-0.524 1.269,-0.953 1.996,-1.291l-0.186,-0.398l-0.432,0.065c0.005,0.044 0.011,0.099 0.02,0.16l0.434,-0.059l-0.434,0.055c0.018,0.131 0.033,0.261 0.046,0.39l0.436,-0.048l-0.436,0.041c0.046,0.447 0.09,0.835 0.142,1.195l0,-0.005c0.112,0.846 0.248,1.593 0.417,2.281c0.182,0.741 0.412,1.46 0.688,2.137c0.274,0.677 0.607,1.347 0.988,1.996c0.375,0.631 0.8,1.255 1.269,1.851l0,-0.002c0.462,0.592 0.968,1.153 1.496,1.67c0.535,0.524 1.102,1.008 1.688,1.437c0.582,0.43 1.209,0.824 1.862,1.173c0.618,0.328 1.286,0.633 2.036,0.926l0,-0.002c0.782,0.307 1.566,0.555 2.386,0.813l0,-0.002c0.302,0.099 0.602,0.193 0.903,0.291c1.019,0.331 2,0.715 2.907,1.133l-0.002,0c0.289,0.134 0.565,0.27 0.824,0.406l0.002,0.002c0.708,0.368 1.383,0.784 2.007,1.234c0.623,0.447 1.23,0.953 1.802,1.5c0.554,0.533 1.089,1.116 1.59,1.734l-0.002,0c0.5,0.618 0.962,1.266 1.374,1.924c0.425,0.683 0.8,1.389 1.111,2.092c0.322,0.723 0.592,1.479 0.806,2.251c0.204,0.729 0.364,1.501 0.493,2.362c0.059,0.401 0.11,0.797 0.154,1.187l0.434,-0.048l-0.29,-0.329l0.29,0.329l0.436,-0.046c-0.042,-0.401 -0.095,-0.809 -0.158,-1.223c-0.134,-0.889 -0.3,-1.698 -0.513,-2.467c-0.228,-0.813 -0.513,-1.61 -0.85,-2.371c-0.329,-0.743 -0.723,-1.483 -1.17,-2.202c-0.43,-0.688 -0.912,-1.365 -1.435,-2.009l0,-0.002c-0.522,-0.645 -1.081,-1.256 -1.664,-1.813c-0.602,-0.576 -1.24,-1.108 -1.897,-1.582c-0.657,-0.473 -1.367,-0.911 -2.112,-1.299l0.002,0c-0.276,-0.145 -0.566,-0.285 -0.864,-0.423l0,-0.002c-0.942,-0.436 -1.954,-0.828 -3.004,-1.17c-0.304,-0.101 -0.607,-0.197 -0.909,-0.292l-0.002,-0.002c-0.82,-0.258 -1.587,-0.499 -2.332,-0.791c-0.721,-0.28 -1.356,-0.572 -1.941,-0.883c-0.614,-0.326 -1.205,-0.701 -1.755,-1.104c-0.55,-0.403 -1.087,-0.861 -1.595,-1.359c-0.5,-0.488 -0.98,-1.023 -1.42,-1.584c-0.445,-0.563 -0.848,-1.155 -1.203,-1.753l0.002,0c-0.362,-0.611 -0.675,-1.245 -0.931,-1.88c-0.259,-0.635 -0.476,-1.315 -0.649,-2.016c-0.162,-0.653 -0.291,-1.367 -0.401,-2.189l0,-0.002c-0.048,-0.342 -0.094,-0.721 -0.138,-1.157l0,-0.007c-0.015,-0.133 -0.031,-0.267 -0.048,-0.403l-0.002,-0.004c-0.007,-0.051 -0.013,-0.11 -0.022,-0.171c-0.022,-0.136 -0.105,-0.256 -0.228,-0.32c-0.121,-0.066 -0.265,-0.068 -0.392,-0.011c-0.796,0.373 -1.536,0.846 -2.202,1.427c-0.108,0.094 -0.163,0.236 -0.145,0.379c0.028,0.241 0.055,0.469 0.085,0.685l0,-0.002c0.123,0.927 0.274,1.751 0.463,2.516c0.208,0.85 0.473,1.672 0.786,2.445c0.316,0.782 0.699,1.551 1.135,2.294c0.425,0.719 0.908,1.425 1.438,2.097c0.48,0.612 0.997,1.197 1.542,1.742c0.055,0.053 0.103,0.099 0.147,0.143l0.002,0.002c0.61,0.596 1.258,1.148 1.926,1.641l0,0.002c0.673,0.491 1.39,0.942 2.137,1.341c0.699,0.373 1.444,0.712 2.277,1.037c0.85,0.331 1.706,0.602 2.524,0.861c0.298,0.094 0.591,0.186 0.883,0.283c0.938,0.304 1.834,0.657 2.662,1.038c0.254,0.118 0.498,0.237 0.728,0.357c0.613,0.322 1.2,0.682 1.737,1.067c0.535,0.386 1.061,0.824 1.558,1.3c0.487,0.467 0.958,0.979 1.4,1.525c0.439,0.545 0.848,1.117 1.208,1.698l0,0.002c0.372,0.594 0.696,1.205 0.968,1.817c0.276,0.62 0.509,1.271 0.693,1.939c0.179,0.64 0.322,1.326 0.438,2.095c0.112,0.749 0.188,1.507 0.254,2.219c0.011,0.143 0.094,0.27 0.217,0.34c0.123,0.072 0.274,0.079 0.403,0.018c0.806,-0.375 1.551,-0.853 2.22,-1.44c0.107,-0.094 0.162,-0.237 0.147,-0.377l-0.436,0.046" style="fill:#322e2e;fill-rule:nonzero;"/><path id="change7_1" d="M27.982,38.681c0.521,-0.147 1.025,-0.329 1.503,-0.55c0.771,-0.359 1.481,-0.815 2.116,-1.374c0.147,-0.125 0.29,-0.258 0.428,-0.396l0.013,-0.014c0.068,0.509 0.12,1.017 0.166,1.51c-1.26,0.533 -2.686,0.807 -4.226,0.824m7.136,-2.851c-0.015,-0.114 -0.03,-0.228 -0.05,-0.344c-0.134,-0.889 -0.3,-1.698 -0.513,-2.467c-0.066,-0.232 -0.134,-0.46 -0.208,-0.69c1.628,-5.748 -1.28,-13.938 -7.801,-20.462c-4.062,-4.06 -8.771,-6.72 -13.134,-7.756l-0.311,-0.044c0.064,0.002 0.125,0.004 0.189,0.006l0.019,0c0.217,0 0.403,-0.16 0.432,-0.374l2.428,0.348c-0.033,0.224 0.109,0.436 0.333,0.489c4.268,1.012 8.914,3.631 12.924,7.64c2.629,2.632 4.662,5.535 6.034,8.428c1.372,2.894 2.082,5.774 2.082,8.353c0,1.424 -0.217,2.756 -0.653,3.95c-0.401,1.1 -0.989,2.082 -1.771,2.923" style="fill:#ad4b3f;fill-rule:nonzero;"/><path id="change4_3" d="M27.824,39.117c-0.535,0 -1.083,-0.028 -1.637,-0.087c0.62,-0.073 1.22,-0.187 1.795,-0.349c1.54,-0.017 2.966,-0.291 4.226,-0.824c0.011,0.103 0.02,0.208 0.031,0.311c0.004,0.049 0.015,0.092 0.035,0.136c-1.339,0.548 -2.844,0.813 -4.45,0.813m7.367,-2.73c-0.022,-0.184 -0.046,-0.368 -0.073,-0.557c0.782,-0.841 1.37,-1.823 1.771,-2.923c0.436,-1.194 0.653,-2.526 0.653,-3.95c0,-2.579 -0.71,-5.459 -2.082,-8.353c-1.372,-2.893 -3.405,-5.796 -6.034,-8.428c-4.01,-4.009 -8.656,-6.628 -12.924,-7.64c-0.224,-0.053 -0.366,-0.265 -0.333,-0.489l0.434,0.061c4.362,1.037 9.069,3.697 13.131,7.759c8.279,8.277 10.733,19.244 5.485,24.491l-0.028,0.029m-21.882,-32.314l-0.019,0c-0.064,-0.002 -0.125,-0.004 -0.189,-0.006l-2.248,-0.324c0.589,-0.079 1.196,-0.121 1.821,-0.121c0.21,0 0.421,0.004 0.635,0.013l0.432,0.064c-0.029,0.214 -0.215,0.374 -0.432,0.374" style="fill:#2f2b2b;fill-rule:nonzero;"/><path id="change8_1" d="M33.05,37.447c-0.053,-0.528 -0.116,-1.078 -0.2,-1.628c-0.017,-0.114 -0.033,-0.227 -0.052,-0.339c0.412,-0.539 0.756,-1.122 1.038,-1.744c0.145,0.587 0.266,1.207 0.366,1.88c0.049,0.322 0.09,0.642 0.127,0.957c-0.398,0.331 -0.826,0.622 -1.279,0.874" style="fill:#9c3a33;fill-rule:nonzero;"/><path id="change4_4" d="M32.274,38.304c-0.02,-0.044 -0.031,-0.087 -0.035,-0.136c-0.011,-0.103 -0.02,-0.208 -0.031,-0.311c-0.046,-0.493 -0.098,-1.001 -0.166,-1.51c0.272,-0.273 0.523,-0.563 0.756,-0.867c0.019,0.112 0.035,0.225 0.052,0.339c0.084,0.55 0.147,1.1 0.2,1.628c0.453,-0.252 0.881,-0.543 1.279,-0.874c-0.037,-0.315 -0.078,-0.635 -0.127,-0.957c-0.1,-0.673 -0.221,-1.293 -0.366,-1.88c0.202,-0.45 0.373,-0.919 0.511,-1.407c0.074,0.23 0.142,0.458 0.208,0.69c0.213,0.769 0.379,1.578 0.513,2.467c0.02,0.116 0.035,0.23 0.05,0.344c0.027,0.189 0.051,0.373 0.073,0.557c-0.132,0.129 -0.263,0.252 -0.401,0.368c-0.636,0.559 -1.346,1.017 -2.115,1.374c-0.134,0.061 -0.267,0.12 -0.401,0.175" style="fill:#2f2b2b;fill-rule:nonzero;"/></g><text x="52.245px" y="39.243px" style="font-family:'Cinzel-Regular', 'Cinzel';font-size:25.069px;">C<tspan x="72.05px 89.423px 103.286px " y="39.243px 39.243px 39.243px ">afé</tspan></text><text x="114.723px" y="38.91px" style="font-family:'Cinzel-Bold', 'Cinzel';font-weight:700;font-size:52.565px;stroke:#fff;stroke-width:0.24px;">p<tspan x="143.371px 170.652px 203.085px 229.052px 256.333px 272.733px 301.643px " y="38.91px 38.91px 38.91px 38.91px 38.91px 38.91px 38.91px ">erfeito</tspan></text></g></svg>