<svg id="Camada_1" data-name="Camada 1" xmlns="http://www.w3.org/2000/svg" viewBox="0 0 64 64"><defs><style>.cls-1,.cls-2,.cls-3,.cls-4,.cls-5,.cls-6,.cls-7{fill:#fff;}.cls-1,.cls-2,.cls-3,.cls-4,.cls-6,.cls-7{stroke:#000;stroke-miterlimit:10;}.cls-1{stroke-width:1.84px;}.cls-2{stroke-width:1.11px;}.cls-3{stroke-width:1.28px;}.cls-4{stroke-width:1.09px;}.cls-6,.cls-7{stroke-width:0.8px;}.cls-7{stroke-dasharray:2.44;}</style></defs><g id="bag_coffee" data-name="bag coffee"><g id="bag"><polygon class="cls-1" points="48.12 56.87 9.53 56.87 16.7 2.06 55.29 2.06 48.12 56.87"/><path class="cls-2" d="M55.79,1.6q1.66,27.45,3.32,54.91"/><path class="cls-3" d="M48.72,57.16l10.89-1.38"/><path class="cls-4" d="M53.41,42.57l.15,13.52"/><path class="cls-5" d="M18.33,31.59a.56.56,0,0,1-.41-.19.53.53,0,0,1-.14-.43L19.3,16.52a.55.55,0,0,1,.55-.5H47.13a.59.59,0,0,1,.41.18.54.54,0,0,1,.14.43L46.16,31.09a.56.56,0,0,1-.55.5Z"/><path d="M47.13,16.58,45.61,31H18.33l1.52-14.45H47.13m0-1.12H19.85a1.1,1.1,0,0,0-1.1,1L17.23,30.91a1,1,0,0,0,.28.86,1.09,1.09,0,0,0,.82.37H45.61a1.12,1.12,0,0,0,1.11-1l1.51-14.46a1.06,1.06,0,0,0-.28-.86,1.12,1.12,0,0,0-.82-.37Z"/><line class="cls-6" x1="22.65" y1="21.24" x2="42.69" y2="21.24"/><line class="cls-6" x1="24.04" y1="25.32" x2="40.71" y2="25.32"/><line class="cls-7" x1="19.11" y1="8.9" x2="51.42" y2="8.9"/></g><g id="beans_coffee" data-name="beans coffee"><ellipse class="cls-5" cx="20.82" cy="49.53" rx="16.43" ry="12.87"/><path d="M17.8,43.28c-.08.22-.14.45-.21.68a13.28,13.28,0,0,0-2.81-.37c-4.34-.06-8.14,1.86-9.46,4.77a5.35,5.35,0,0,0-.47,2.11c-.06,3.86,4.31,7.07,9.73,7.14A12.12,12.12,0,0,0,21.06,56C23.17,58,25.74,58.84,28,58a5.6,5.6,0,0,0,2.87-2.46c1.42-2.38,1.55-5.9.36-9.19-1.86-5.1-6.33-8.17-10-6.84A6,6,0,0,0,17.8,43.28ZM7.88,48.59l-.54-.43c1.38-1.81,4.26-3,7.42-2.93a11.33,11.33,0,0,1,2.4.28,10.25,10.25,0,0,0-.05,2.66,11.79,11.79,0,0,0-1.71.38l-.54.16C10.59,50,9.93,50.17,7.88,48.59Zm7.44,1.69.54-.16a8.68,8.68,0,0,1,1.75-.34c0,.1.06.21.09.31a9,9,0,0,0-1.18.32c-2.51,1-4.57,1.33-6,.93A18.69,18.69,0,0,0,15.32,50.28ZM14.61,56c-4.53-.06-8.17-2.53-8.13-5.49a3.22,3.22,0,0,1,.14-.93,4.69,4.69,0,0,0,2.25,2.88c2,1.09,4.74.92,8.22-.5a8.23,8.23,0,0,1,.94-.26c.12.29.24.58.39.86a13.48,13.48,0,0,0,1.41,2.27A10.8,10.8,0,0,1,14.61,56Zm6.44-2.52a11.34,11.34,0,0,1-1.5-2.84,9.67,9.67,0,0,1-.39-1.37,10.75,10.75,0,0,1-.29-1.78,8.47,8.47,0,0,1,.47-3.62,6.21,6.21,0,0,1,.48-1,3.86,3.86,0,0,1,2-1.73,3.29,3.29,0,0,1,.93-.2,4.66,4.66,0,0,0-1.27,1.39,5,5,0,0,0-.58,3.46A9.81,9.81,0,0,0,22.8,49.8a18.41,18.41,0,0,0,1.42,1.71c2.06,2.5,1.37,4,1.35,4.06l-.53,1A7.69,7.69,0,0,1,21.05,53.46Zm1.39-8.3a19,19,0,0,0,2.7,4.1l.34.45A6.35,6.35,0,0,1,27,53.1a8.69,8.69,0,0,0-1.56-2.67,16.75,16.75,0,0,1-1.33-1.61,8.4,8.4,0,0,1-1.63-3.37C22.46,45.35,22.45,45.25,22.44,45.16Zm7.22,1.78c1,2.84.95,5.83-.22,7.79h0a3.91,3.91,0,0,1-2,1.76,3,3,0,0,1-.72.18c.39-.21,4.23-2.51.09-8l-.34-.45c-2.7-3.54-3.11-4.09-2.36-6.56l.2-.67C26.42,41.68,28.55,43.89,29.66,46.94Z"/></g></g></svg>